<svg aria-hidden="true" style="position: absolute; width: 0; height: 0; overflow: hidden;" version="1.1" xmlns="http://www.w3.org/2000/svg" xmlns:xlink="http://www.w3.org/1999/xlink">
<defs>
<symbol id="icon-date" viewBox="0 0 32 32">
<path d="M7.894 0.053c-0.199 0.072-0.502 0.344-0.627 0.563-0.132 0.237-0.16 0.56-0.16 1.855 0 1.299 0.046 2.26 0.121 2.501s0.256 0.426 0.541 0.563c0.189 0.089 0.278 0.11 0.47 0.11 0.445 0.003 0.844-0.213 1.050-0.563l0.11-0.189v-4.122l-0.082-0.161c-0.231-0.453-0.94-0.728-1.424-0.556z"></path>
<path d="M16.244 0.046c-0.306 0.11-0.559 0.344-0.712 0.663-0.078 0.165-0.078 0.175-0.078 1.986 0 2.367 0.014 2.46 0.467 2.752 0.509 0.33 1.143 0.251 1.553-0.186 0.26-0.282 0.253-0.223 0.267-2.236 0.018-2.281 0.007-2.381-0.313-2.683-0.303-0.285-0.844-0.419-1.182-0.295z"></path>
<path d="M24.591 0.036c-0.274 0.079-0.598 0.368-0.723 0.642-0.11 0.237-0.146 0.945-0.117 2.405 0.021 1.257 0.050 1.683 0.125 1.941 0.057 0.189 0.256 0.385 0.527 0.512 0.206 0.1 0.271 0.113 0.509 0.11 0.235 0 0.31-0.017 0.509-0.113 0.142-0.065 0.289-0.172 0.378-0.268 0.246-0.271 0.253-0.323 0.274-1.951 0.007-0.794 0.004-1.7-0.014-2.013-0.032-0.526-0.043-0.584-0.128-0.725-0.196-0.326-0.58-0.546-0.983-0.563-0.128-0.007-0.289 0.003-0.356 0.024z"></path>
<path d="M4.407 2.303c-1.221 0.089-2.069 0.471-2.966 1.336-0.652 0.625-0.969 1.099-1.225 1.828-0.128 0.357-0.132 0.392-0.164 1.065-0.046 1.007-0.071 14.133-0.036 17.942 0.032 3.15 0.053 3.717 0.16 4.215 0.064 0.306 0.374 0.931 0.659 1.333 0.427 0.601 1.154 1.199 1.869 1.542 0.495 0.237 0.855 0.344 1.335 0.392 0.595 0.058 23.338 0.058 23.94 0 1.307-0.13 2.678-1.051 3.443-2.312 0.199-0.33 0.449-0.962 0.498-1.271 0.061-0.35 0.096-9.852 0.068-16.901-0.028-5.943-0.011-5.565-0.278-6.218-0.249-0.611-0.623-1.147-1.147-1.652-0.805-0.773-1.731-1.171-3.066-1.323l-0.206-0.021v1.264c0 0.704-0.018 1.364-0.036 1.484-0.068 0.392-0.456 1.024-0.787 1.288-0.246 0.192-0.634 0.399-0.901 0.478-0.214 0.062-0.303 0.069-0.659 0.052-0.979-0.048-1.595-0.388-2.072-1.144-0.235-0.371-0.249-0.464-0.267-1.834-0.011-0.67-0.025-1.302-0.036-1.402l-0.018-0.179h-3.522v0.488c-0.004 0.756-0.036 2.051-0.057 2.254-0.014 0.124-0.078 0.299-0.203 0.532-0.31 0.598-0.837 1.031-1.517 1.244-0.16 0.052-0.271 0.058-0.623 0.041-0.491-0.024-0.748-0.082-1.122-0.254-0.449-0.206-0.912-0.708-1.122-1.213-0.071-0.172-0.121-1.127-0.125-2.415l-0.004-0.677h-3.55l-0.025 1.295c-0.014 0.715-0.039 1.398-0.057 1.522-0.053 0.368-0.242 0.68-0.641 1.068-0.281 0.275-0.392 0.354-0.655 0.481l-0.317 0.151h-1.403l-0.31-0.151c-0.474-0.23-0.947-0.691-1.189-1.158-0.1-0.189-0.15-0.605-0.15-1.237 0-0.285-0.011-0.845-0.025-1.244l-0.021-0.728-0.556 0.003c-0.306 0.003-0.719 0.017-0.919 0.034zM29.679 19.72v8.282l-0.221 0.419c-0.185 0.343-0.271 0.46-0.495 0.677-0.228 0.22-0.335 0.292-0.687 0.46l-0.413 0.199-23.854-0.038-0.278-0.144c-0.584-0.302-0.915-0.636-1.225-1.237l-0.175-0.34v-16.561h27.348v8.282z"></path>
<path d="M11.654 13.77c-0.374 0.052-0.737 0.347-0.883 0.714-0.139 0.361-0.128 1.45 0.018 1.927 0.071 0.227 0.264 0.436 0.524 0.577l0.189 0.1h3.027l0.203-0.096c0.256-0.124 0.47-0.326 0.548-0.532 0.078-0.213 0.114-1.457 0.050-1.828-0.068-0.395-0.349-0.708-0.741-0.828-0.153-0.048-2.61-0.076-2.934-0.034z"></path>
<path d="M17.608 13.77c-0.356 0.038-0.701 0.306-0.88 0.68-0.078 0.165-0.092 0.251-0.11 0.694-0.021 0.587 0.032 1.106 0.139 1.347 0.085 0.186 0.303 0.398 0.538 0.519 0.153 0.079 0.167 0.079 1.553 0.089 1.57 0.014 1.681 0 1.983-0.192 0.413-0.268 0.463-0.429 0.463-1.467 0-0.945-0.032-1.099-0.285-1.34-0.206-0.199-0.395-0.289-0.705-0.326-0.278-0.034-2.375-0.038-2.696-0.004z"></path>
<path d="M23.511 13.774c-0.11 0.014-0.256 0.058-0.324 0.1-0.174 0.103-0.395 0.343-0.513 0.56l-0.1 0.182v0.756c0 0.694 0.007 0.776 0.082 1.007 0.093 0.289 0.264 0.477 0.563 0.625l0.174 0.086h3.027l0.199-0.096c0.274-0.127 0.474-0.347 0.556-0.598 0.093-0.289 0.093-1.652 0.004-1.938-0.121-0.374-0.481-0.632-0.958-0.684-0.342-0.038-2.404-0.038-2.71 0z"></path>
<path d="M5.999 18.342c-0.52 0.024-0.637 0.069-0.897 0.337-0.242 0.247-0.313 0.409-0.356 0.794-0.039 0.354-0.011 1.079 0.050 1.36 0.071 0.323 0.246 0.553 0.548 0.725 0.214 0.12 0.57 0.151 1.723 0.148 1.143-0.003 1.531-0.028 1.727-0.117 0.196-0.093 0.491-0.385 0.548-0.55 0.068-0.189 0.096-1.567 0.039-1.852-0.071-0.364-0.231-0.556-0.605-0.742-0.142-0.072-0.231-0.082-0.872-0.107-0.794-0.031-1.246-0.031-1.905 0.004z"></path>
<path d="M11.928 18.342c-0.488 0.024-0.616 0.069-0.869 0.313-0.224 0.22-0.32 0.429-0.367 0.797-0.039 0.333-0.014 1.072 0.043 1.371 0.075 0.375 0.288 0.625 0.662 0.79 0.167 0.072 0.224 0.076 1.421 0.082 1.684 0.014 1.866-0.010 2.208-0.302 0.274-0.23 0.338-0.495 0.338-1.384 0-0.869-0.050-1.082-0.313-1.34-0.242-0.237-0.434-0.295-1.086-0.33-0.641-0.031-1.389-0.031-2.037 0.003z"></path>
<path d="M17.892 18.342c-0.466 0.021-0.484 0.024-0.673 0.134-0.21 0.131-0.477 0.45-0.541 0.649-0.021 0.069-0.046 0.361-0.057 0.642-0.021 0.55 0.021 0.993 0.121 1.275 0.075 0.209 0.31 0.436 0.573 0.556l0.203 0.093h2.92l0.199-0.089c0.11-0.052 0.274-0.158 0.363-0.24 0.235-0.22 0.278-0.388 0.299-1.151 0.028-0.989-0.039-1.305-0.349-1.573-0.263-0.234-0.399-0.268-1.1-0.299-0.698-0.031-1.25-0.028-1.959 0.003z"></path>
<path d="M23.708 18.342c-0.328 0.024-0.381 0.038-0.545 0.137-0.217 0.134-0.399 0.34-0.506 0.57-0.064 0.144-0.078 0.247-0.093 0.718-0.036 1.165 0.125 1.577 0.698 1.831 0.192 0.082 0.21 0.086 1.392 0.1 1.727 0.024 1.966-0.014 2.325-0.374 0.224-0.223 0.26-0.398 0.26-1.299 0-0.646-0.011-0.804-0.064-0.972-0.078-0.251-0.281-0.471-0.548-0.594-0.182-0.086-0.238-0.093-0.894-0.12-0.819-0.031-1.517-0.031-2.026 0.004z"></path>
<path d="M5.729 22.945c-0.37 0.041-0.687 0.278-0.876 0.649-0.117 0.23-0.16 0.787-0.107 1.374 0.021 0.258 0.061 0.522 0.082 0.587 0.107 0.33 0.463 0.625 0.826 0.69 0.132 0.021 0.716 0.031 1.585 0.024 1.374-0.010 1.378-0.010 1.538-0.093 0.577-0.295 0.659-0.515 0.63-1.707-0.018-0.852-0.036-0.938-0.26-1.178-0.199-0.213-0.406-0.309-0.769-0.347-0.331-0.038-2.315-0.038-2.649 0z"></path>
<path d="M11.64 22.945c-0.328 0.034-0.655 0.278-0.837 0.625-0.174 0.333-0.174 1.608 0.004 2.061 0.085 0.223 0.306 0.44 0.563 0.553 0.164 0.072 0.207 0.076 1.681 0.076h1.513l0.178-0.096c0.527-0.285 0.623-0.515 0.623-1.539 0-0.903-0.064-1.168-0.338-1.398-0.199-0.172-0.392-0.247-0.705-0.282-0.331-0.038-2.35-0.038-2.681 0z"></path>
<path d="M17.59 22.945c-0.356 0.038-0.68 0.292-0.869 0.684-0.089 0.189-0.093 0.206-0.093 0.897 0 0.728 0.028 0.952 0.164 1.206 0.075 0.148 0.296 0.343 0.502 0.45 0.153 0.079 0.157 0.079 1.684 0.079s1.531 0 1.684-0.079c0.21-0.107 0.427-0.302 0.509-0.457 0.096-0.182 0.139-0.515 0.139-1.103 0-0.859-0.075-1.175-0.338-1.395-0.199-0.172-0.392-0.247-0.705-0.282-0.328-0.038-2.35-0.038-2.678 0z"></path>
</symbol>
<symbol id="icon-duration" viewBox="0 0 32 32">
<path d="M16.791 0.134c-0.54 0.195-0.8 0.781-0.8 1.691 0 1.214 0.4 1.54 2.081 1.735 3.102 0.347 5.363 1.496 7.464 3.773 2.201 2.407 3.302 5.334 3.322 8.695 0 8.262-7.124 14.203-14.588 12.143-4.102-1.149-7.404-4.836-8.265-9.281-0.12-0.629-0.22-1.236-0.22-1.344 0-0.13 0.58-0.217 1.301-0.217s1.301-0.065 1.301-0.152c0-0.238-4.102-7.633-4.242-7.655-0.080 0-0.5 0.716-0.961 1.561-0.44 0.867-1.341 2.515-2.001 3.643-0.64 1.128-1.181 2.19-1.181 2.32-0.020 0.195 0.36 0.282 1.281 0.282h1.301v0.716c0 1.93 1.341 5.703 2.702 7.633 1.941 2.732 4.643 4.814 7.564 5.79 1.941 0.672 6.764 0.716 8.645 0.087 3.862-1.279 7.684-4.857 9.125-8.544 0.24-0.564 0.54-1.323 0.68-1.67 0.72-1.778 0.94-6.484 0.4-8.977-0.32-1.431-2.002-5.503-2.321-5.616-0.152-0.277 0.198 0.244 0 0-0.073-0.377-1.941-2.472-3.282-3.578-0.66-0.542-1.881-1.344-2.702-1.756-2.081-1.041-5.523-1.713-6.604-1.279z"></path>
<path d="M16.39 6.704c-0.38 0.412-0.4 0.716-0.4 4.922v4.51l-2.141 2.32c-1.821 1.973-2.121 2.407-2.121 3.014 0 0.499 0.16 0.846 0.56 1.236 0.961 0.889 1.461 0.585 4.242-2.45l2.461-2.689v-5.183c0-5.117 0-5.183-0.46-5.638-0.6-0.607-1.601-0.629-2.141-0.043z"></path>
<path d="M22.714 9.219c-0.38 0.39-0.42 1.193-0.080 1.561 0.3 0.325 1.221 0.325 1.521 0 0.56-0.607 0.040-1.908-0.76-1.908-0.2 0-0.52 0.152-0.68 0.347z"></path>
<path d="M24.835 15.378c-0.54 0.564-0.56 0.954-0.040 1.518s0.881 0.542 1.401-0.043c0.52-0.607 0.5-0.867-0.060-1.431-0.58-0.585-0.74-0.585-1.301-0.043z"></path>
<path d="M22.634 21.276c-0.66 0.716 0.12 2.082 1.041 1.822 0.58-0.152 0.901-1.063 0.58-1.626-0.26-0.434-1.281-0.564-1.621-0.195z"></path>
<path d="M16.57 24.507c-0.64 0.694-0.22 1.691 0.74 1.713 0.54 0 0.881-0.412 0.881-1.084 0-1.084-0.881-1.431-1.621-0.629z"></path>
</symbol>
<symbol id="icon-routes" viewBox="0 0 32 32">
<path d="M21.828 0.069c-0.603 0.124-1.005 0.292-1.457 0.601-1.080 0.747-1.725 1.914-1.792 3.262-0.046 0.884 0.075 1.441 0.527 2.409s0.992 1.781 2.282 3.426c0.858 1.092 0.95 1.171 1.277 1.065 0.134-0.040 0.247-0.155 0.594-0.592 1.465-1.821 2.231-2.957 2.7-4 0.448-0.99 0.59-1.764 0.473-2.573-0.121-0.849-0.373-1.463-0.854-2.108-0.871-1.163-2.411-1.772-3.751-1.49zM22.883 2.168c0.368 0.080 0.733 0.292 0.992 0.57 0.289 0.309 0.444 0.632 0.532 1.096 0.063 0.318 0.063 0.38 0.004 0.69-0.088 0.46-0.247 0.778-0.532 1.083-0.427 0.46-0.984 0.659-1.62 0.583-1.051-0.128-1.817-1.202-1.654-2.316 0.167-1.149 1.218-1.94 2.277-1.706z"></path>
<path d="M15.235 8.816c-1.080 0.181-1.888 0.614-2.642 1.41-1.344 1.428-1.725 3.452-0.992 5.309 0.276 0.703 0.892 1.521 1.515 2.011 0.465 0.367 1.268 0.756 1.825 0.88 0.582 0.128 0.942 0.137 5.434 0.137 5.019 0 4.961-0.004 5.668 0.248 0.779 0.274 1.423 0.676 1.993 1.251 1.503 1.507 2.009 3.775 1.302 5.843-0.423 1.233-1.373 2.369-2.483 2.97-0.398 0.212-0.699 0.332-1.201 0.482l-0.331 0.097-8.025 0.027c-5.271 0.013-8.038 0.035-8.063 0.066-0.021 0.022-0.184 0.243-0.368 0.486-0.18 0.243-0.548 0.725-0.821 1.074s-0.494 0.659-0.494 0.69 0.034 0.088 0.075 0.128c0.071 0.071 0.733 0.075 8.678 0.075 9.076 0 8.9 0.004 9.8-0.199 2.989-0.659 5.375-3.359 5.836-6.604 0.080-0.561 0.075-1.901-0.004-2.391-0.381-2.281-1.511-4.115-3.324-5.393-0.887-0.623-1.888-1.043-3.043-1.269-0.327-0.066-0.95-0.075-5.25-0.102-5.321-0.031-4.969-0.009-5.472-0.278-0.846-0.455-1.34-1.423-1.218-2.396 0.113-0.919 0.661-1.636 1.524-1.976 0.247-0.102 0.26-0.102 3.152-0.115 2.009-0.009 2.926-0.026 2.964-0.062 0.105-0.088 0.055-0.199-0.268-0.61-0.18-0.225-0.565-0.729-0.854-1.123l-0.523-0.712-2.030-0.004c-1.461-0.004-2.118 0.009-2.361 0.049z"></path>
<path d="M4.978 15.712c-1.197 0.177-2.185 0.663-3.11 1.512-0.783 0.725-1.461 1.932-1.721 3.063-0.176 0.787-0.197 1.799-0.050 2.573 0.318 1.684 1.465 3.717 3.705 6.577 1.465 1.874 1.536 1.949 1.917 1.945 0.327-0.004 0.481-0.137 1.147-0.972 2.424-3.050 3.433-4.601 4.094-6.29 0.209-0.53 0.251-0.672 0.41-1.401 0.029-0.15 0.050-0.544 0.046-1.017 0-0.853-0.071-1.304-0.314-2.029-0.574-1.715-1.93-3.121-3.571-3.7-0.452-0.159-0.557-0.186-1.084-0.261-0.54-0.080-0.95-0.080-1.469 0zM6.36 18.828c0.456 0.124 0.883 0.358 1.193 0.65 0.427 0.411 0.661 0.791 0.846 1.366 0.138 0.442 0.138 1.273-0.004 1.719-0.159 0.517-0.335 0.813-0.695 1.198-0.615 0.659-1.319 0.946-2.152 0.888-1.239-0.084-2.227-0.964-2.562-2.285-0.067-0.256-0.067-1.070 0-1.326 0.234-0.915 0.733-1.578 1.49-1.971 0.632-0.327 1.248-0.407 1.884-0.239z"></path>
</symbol>
</defs>
</svg>
