<svg aria-hidden="true" style="position: absolute; width: 0; height: 0; overflow: hidden;" version="1.1" xmlns="http://www.w3.org/2000/svg" xmlns:xlink="http://www.w3.org/1999/xlink">
<defs>
<symbol id="icon-date" viewBox="0 0 32 32">
<path d="M7.894 0.053c-0.199 0.072-0.502 0.344-0.627 0.563-0.132 0.237-0.16 0.56-0.16 1.855 0 1.299 0.046 2.26 0.121 2.501s0.256 0.426 0.541 0.563c0.189 0.089 0.278 0.11 0.47 0.11 0.445 0.003 0.844-0.213 1.050-0.563l0.11-0.189v-4.122l-0.082-0.161c-0.231-0.453-0.94-0.728-1.424-0.556z"></path>
<path d="M16.244 0.046c-0.306 0.11-0.559 0.344-0.712 0.663-0.078 0.165-0.078 0.175-0.078 1.986 0 2.367 0.014 2.46 0.467 2.752 0.509 0.33 1.143 0.251 1.553-0.186 0.26-0.282 0.253-0.223 0.267-2.236 0.018-2.281 0.007-2.381-0.313-2.683-0.303-0.285-0.844-0.419-1.182-0.295z"></path>
<path d="M24.591 0.036c-0.274 0.079-0.598 0.368-0.723 0.642-0.11 0.237-0.146 0.945-0.117 2.405 0.021 1.257 0.050 1.683 0.125 1.941 0.057 0.189 0.256 0.385 0.527 0.512 0.206 0.1 0.271 0.113 0.509 0.11 0.235 0 0.31-0.017 0.509-0.113 0.142-0.065 0.289-0.172 0.378-0.268 0.246-0.271 0.253-0.323 0.274-1.951 0.007-0.794 0.004-1.7-0.014-2.013-0.032-0.526-0.043-0.584-0.128-0.725-0.196-0.326-0.58-0.546-0.983-0.563-0.128-0.007-0.289 0.003-0.356 0.024z"></path>
<path d="M4.407 2.303c-1.221 0.089-2.069 0.471-2.966 1.336-0.652 0.625-0.969 1.099-1.225 1.828-0.128 0.357-0.132 0.392-0.164 1.065-0.046 1.007-0.071 14.133-0.036 17.942 0.032 3.15 0.053 3.717 0.16 4.215 0.064 0.306 0.374 0.931 0.659 1.333 0.427 0.601 1.154 1.199 1.869 1.542 0.495 0.237 0.855 0.344 1.335 0.392 0.595 0.058 23.338 0.058 23.94 0 1.307-0.13 2.678-1.051 3.443-2.312 0.199-0.33 0.449-0.962 0.498-1.271 0.061-0.35 0.096-9.852 0.068-16.901-0.028-5.943-0.011-5.565-0.278-6.218-0.249-0.611-0.623-1.147-1.147-1.652-0.805-0.773-1.731-1.171-3.066-1.323l-0.206-0.021v1.264c0 0.704-0.018 1.364-0.036 1.484-0.068 0.392-0.456 1.024-0.787 1.288-0.246 0.192-0.634 0.399-0.901 0.478-0.214 0.062-0.303 0.069-0.659 0.052-0.979-0.048-1.595-0.388-2.072-1.144-0.235-0.371-0.249-0.464-0.267-1.834-0.011-0.67-0.025-1.302-0.036-1.402l-0.018-0.179h-3.522v0.488c-0.004 0.756-0.036 2.051-0.057 2.254-0.014 0.124-0.078 0.299-0.203 0.532-0.31 0.598-0.837 1.031-1.517 1.244-0.16 0.052-0.271 0.058-0.623 0.041-0.491-0.024-0.748-0.082-1.122-0.254-0.449-0.206-0.912-0.708-1.122-1.213-0.071-0.172-0.121-1.127-0.125-2.415l-0.004-0.677h-3.55l-0.025 1.295c-0.014 0.715-0.039 1.398-0.057 1.522-0.053 0.368-0.242 0.68-0.641 1.068-0.281 0.275-0.392 0.354-0.655 0.481l-0.317 0.151h-1.403l-0.31-0.151c-0.474-0.23-0.947-0.691-1.189-1.158-0.1-0.189-0.15-0.605-0.15-1.237 0-0.285-0.011-0.845-0.025-1.244l-0.021-0.728-0.556 0.003c-0.306 0.003-0.719 0.017-0.919 0.034zM29.679 19.72v8.282l-0.221 0.419c-0.185 0.343-0.271 0.46-0.495 0.677-0.228 0.22-0.335 0.292-0.687 0.46l-0.413 0.199-23.854-0.038-0.278-0.144c-0.584-0.302-0.915-0.636-1.225-1.237l-0.175-0.34v-16.561h27.348v8.282z"></path>
<path d="M11.654 13.77c-0.374 0.052-0.737 0.347-0.883 0.714-0.139 0.361-0.128 1.45 0.018 1.927 0.071 0.227 0.264 0.436 0.524 0.577l0.189 0.1h3.027l0.203-0.096c0.256-0.124 0.47-0.326 0.548-0.532 0.078-0.213 0.114-1.457 0.050-1.828-0.068-0.395-0.349-0.708-0.741-0.828-0.153-0.048-2.61-0.076-2.934-0.034z"></path>
<path d="M17.608 13.77c-0.356 0.038-0.701 0.306-0.88 0.68-0.078 0.165-0.092 0.251-0.11 0.694-0.021 0.587 0.032 1.106 0.139 1.347 0.085 0.186 0.303 0.398 0.538 0.519 0.153 0.079 0.167 0.079 1.553 0.089 1.57 0.014 1.681 0 1.983-0.192 0.413-0.268 0.463-0.429 0.463-1.467 0-0.945-0.032-1.099-0.285-1.34-0.206-0.199-0.395-0.289-0.705-0.326-0.278-0.034-2.375-0.038-2.696-0.004z"></path>
<path d="M23.511 13.774c-0.11 0.014-0.256 0.058-0.324 0.1-0.174 0.103-0.395 0.343-0.513 0.56l-0.1 0.182v0.756c0 0.694 0.007 0.776 0.082 1.007 0.093 0.289 0.264 0.477 0.563 0.625l0.174 0.086h3.027l0.199-0.096c0.274-0.127 0.474-0.347 0.556-0.598 0.093-0.289 0.093-1.652 0.004-1.938-0.121-0.374-0.481-0.632-0.958-0.684-0.342-0.038-2.404-0.038-2.71 0z"></path>
<path d="M5.999 18.342c-0.52 0.024-0.637 0.069-0.897 0.337-0.242 0.247-0.313 0.409-0.356 0.794-0.039 0.354-0.011 1.079 0.050 1.36 0.071 0.323 0.246 0.553 0.548 0.725 0.214 0.12 0.57 0.151 1.723 0.148 1.143-0.003 1.531-0.028 1.727-0.117 0.196-0.093 0.491-0.385 0.548-0.55 0.068-0.189 0.096-1.567 0.039-1.852-0.071-0.364-0.231-0.556-0.605-0.742-0.142-0.072-0.231-0.082-0.872-0.107-0.794-0.031-1.246-0.031-1.905 0.004z"></path>
<path d="M11.928 18.342c-0.488 0.024-0.616 0.069-0.869 0.313-0.224 0.22-0.32 0.429-0.367 0.797-0.039 0.333-0.014 1.072 0.043 1.371 0.075 0.375 0.288 0.625 0.662 0.79 0.167 0.072 0.224 0.076 1.421 0.082 1.684 0.014 1.866-0.010 2.208-0.302 0.274-0.23 0.338-0.495 0.338-1.384 0-0.869-0.050-1.082-0.313-1.34-0.242-0.237-0.434-0.295-1.086-0.33-0.641-0.031-1.389-0.031-2.037 0.003z"></path>
<path d="M17.892 18.342c-0.466 0.021-0.484 0.024-0.673 0.134-0.21 0.131-0.477 0.45-0.541 0.649-0.021 0.069-0.046 0.361-0.057 0.642-0.021 0.55 0.021 0.993 0.121 1.275 0.075 0.209 0.31 0.436 0.573 0.556l0.203 0.093h2.92l0.199-0.089c0.11-0.052 0.274-0.158 0.363-0.24 0.235-0.22 0.278-0.388 0.299-1.151 0.028-0.989-0.039-1.305-0.349-1.573-0.263-0.234-0.399-0.268-1.1-0.299-0.698-0.031-1.25-0.028-1.959 0.003z"></path>
<path d="M23.708 18.342c-0.328 0.024-0.381 0.038-0.545 0.137-0.217 0.134-0.399 0.34-0.506 0.57-0.064 0.144-0.078 0.247-0.093 0.718-0.036 1.165 0.125 1.577 0.698 1.831 0.192 0.082 0.21 0.086 1.392 0.1 1.727 0.024 1.966-0.014 2.325-0.374 0.224-0.223 0.26-0.398 0.26-1.299 0-0.646-0.011-0.804-0.064-0.972-0.078-0.251-0.281-0.471-0.548-0.594-0.182-0.086-0.238-0.093-0.894-0.12-0.819-0.031-1.517-0.031-2.026 0.004z"></path>
<path d="M5.729 22.945c-0.37 0.041-0.687 0.278-0.876 0.649-0.117 0.23-0.16 0.787-0.107 1.374 0.021 0.258 0.061 0.522 0.082 0.587 0.107 0.33 0.463 0.625 0.826 0.69 0.132 0.021 0.716 0.031 1.585 0.024 1.374-0.010 1.378-0.010 1.538-0.093 0.577-0.295 0.659-0.515 0.63-1.707-0.018-0.852-0.036-0.938-0.26-1.178-0.199-0.213-0.406-0.309-0.769-0.347-0.331-0.038-2.315-0.038-2.649 0z"></path>
<path d="M11.64 22.945c-0.328 0.034-0.655 0.278-0.837 0.625-0.174 0.333-0.174 1.608 0.004 2.061 0.085 0.223 0.306 0.44 0.563 0.553 0.164 0.072 0.207 0.076 1.681 0.076h1.513l0.178-0.096c0.527-0.285 0.623-0.515 0.623-1.539 0-0.903-0.064-1.168-0.338-1.398-0.199-0.172-0.392-0.247-0.705-0.282-0.331-0.038-2.35-0.038-2.681 0z"></path>
<path d="M17.59 22.945c-0.356 0.038-0.68 0.292-0.869 0.684-0.089 0.189-0.093 0.206-0.093 0.897 0 0.728 0.028 0.952 0.164 1.206 0.075 0.148 0.296 0.343 0.502 0.45 0.153 0.079 0.157 0.079 1.684 0.079s1.531 0 1.684-0.079c0.21-0.107 0.427-0.302 0.509-0.457 0.096-0.182 0.139-0.515 0.139-1.103 0-0.859-0.075-1.175-0.338-1.395-0.199-0.172-0.392-0.247-0.705-0.282-0.328-0.038-2.35-0.038-2.678 0z"></path>
</symbol>
<symbol id="icon-duration" viewBox="0 0 32 32">
<path d="M16.791 0.134c-0.54 0.195-0.8 0.781-0.8 1.691 0 1.214 0.4 1.54 2.081 1.735 3.102 0.347 5.363 1.496 7.464 3.773 2.201 2.407 3.302 5.334 3.322 8.695 0 8.262-7.124 14.203-14.588 12.143-4.102-1.149-7.404-4.836-8.265-9.281-0.12-0.629-0.22-1.236-0.22-1.344 0-0.13 0.58-0.217 1.301-0.217s1.301-0.065 1.301-0.152c0-0.238-4.102-7.633-4.242-7.655-0.080 0-0.5 0.716-0.961 1.561-0.44 0.867-1.341 2.515-2.001 3.643-0.64 1.128-1.181 2.19-1.181 2.32-0.020 0.195 0.36 0.282 1.281 0.282h1.301v0.716c0 1.93 1.341 5.703 2.702 7.633 1.941 2.732 4.643 4.814 7.564 5.79 1.941 0.672 6.764 0.716 8.645 0.087 3.862-1.279 7.684-4.857 9.125-8.544 0.24-0.564 0.54-1.323 0.68-1.67 0.72-1.778 0.94-6.484 0.4-8.977-0.32-1.431-2.002-5.503-2.321-5.616-0.152-0.277 0.198 0.244 0 0-0.073-0.377-1.941-2.472-3.282-3.578-0.66-0.542-1.881-1.344-2.702-1.756-2.081-1.041-5.523-1.713-6.604-1.279z"></path>
<path d="M16.39 6.704c-0.38 0.412-0.4 0.716-0.4 4.922v4.51l-2.141 2.32c-1.821 1.973-2.121 2.407-2.121 3.014 0 0.499 0.16 0.846 0.56 1.236 0.961 0.889 1.461 0.585 4.242-2.45l2.461-2.689v-5.183c0-5.117 0-5.183-0.46-5.638-0.6-0.607-1.601-0.629-2.141-0.043z"></path>
<path d="M22.714 9.219c-0.38 0.39-0.42 1.193-0.080 1.561 0.3 0.325 1.221 0.325 1.521 0 0.56-0.607 0.040-1.908-0.76-1.908-0.2 0-0.52 0.152-0.68 0.347z"></path>
<path d="M24.835 15.378c-0.54 0.564-0.56 0.954-0.040 1.518s0.881 0.542 1.401-0.043c0.52-0.607 0.5-0.867-0.060-1.431-0.58-0.585-0.74-0.585-1.301-0.043z"></path>
<path d="M22.634 21.276c-0.66 0.716 0.12 2.082 1.041 1.822 0.58-0.152 0.901-1.063 0.58-1.626-0.26-0.434-1.281-0.564-1.621-0.195z"></path>
<path d="M16.57 24.507c-0.64 0.694-0.22 1.691 0.74 1.713 0.54 0 0.881-0.412 0.881-1.084 0-1.084-0.881-1.431-1.621-0.629z"></path>
</symbol>
<symbol id="icon-routes" viewBox="0 0 32 32">
<path d="M21.828 0.069c-0.603 0.124-1.005 0.292-1.457 0.601-1.080 0.747-1.725 1.914-1.792 3.262-0.046 0.884 0.075 1.441 0.527 2.409s0.992 1.781 2.282 3.426c0.858 1.092 0.95 1.171 1.277 1.065 0.134-0.040 0.247-0.155 0.594-0.592 1.465-1.821 2.231-2.957 2.7-4 0.448-0.99 0.59-1.764 0.473-2.573-0.121-0.849-0.373-1.463-0.854-2.108-0.871-1.163-2.411-1.772-3.751-1.49zM22.883 2.168c0.368 0.080 0.733 0.292 0.992 0.57 0.289 0.309 0.444 0.632 0.532 1.096 0.063 0.318 0.063 0.38 0.004 0.69-0.088 0.46-0.247 0.778-0.532 1.083-0.427 0.46-0.984 0.659-1.62 0.583-1.051-0.128-1.817-1.202-1.654-2.316 0.167-1.149 1.218-1.94 2.277-1.706z"></path>
<path d="M15.235 8.816c-1.080 0.181-1.888 0.614-2.642 1.41-1.344 1.428-1.725 3.452-0.992 5.309 0.276 0.703 0.892 1.521 1.515 2.011 0.465 0.367 1.268 0.756 1.825 0.88 0.582 0.128 0.942 0.137 5.434 0.137 5.019 0 4.961-0.004 5.668 0.248 0.779 0.274 1.423 0.676 1.993 1.251 1.503 1.507 2.009 3.775 1.302 5.843-0.423 1.233-1.373 2.369-2.483 2.97-0.398 0.212-0.699 0.332-1.201 0.482l-0.331 0.097-8.025 0.027c-5.271 0.013-8.038 0.035-8.063 0.066-0.021 0.022-0.184 0.243-0.368 0.486-0.18 0.243-0.548 0.725-0.821 1.074s-0.494 0.659-0.494 0.69 0.034 0.088 0.075 0.128c0.071 0.071 0.733 0.075 8.678 0.075 9.076 0 8.9 0.004 9.8-0.199 2.989-0.659 5.375-3.359 5.836-6.604 0.080-0.561 0.075-1.901-0.004-2.391-0.381-2.281-1.511-4.115-3.324-5.393-0.887-0.623-1.888-1.043-3.043-1.269-0.327-0.066-0.95-0.075-5.25-0.102-5.321-0.031-4.969-0.009-5.472-0.278-0.846-0.455-1.34-1.423-1.218-2.396 0.113-0.919 0.661-1.636 1.524-1.976 0.247-0.102 0.26-0.102 3.152-0.115 2.009-0.009 2.926-0.026 2.964-0.062 0.105-0.088 0.055-0.199-0.268-0.61-0.18-0.225-0.565-0.729-0.854-1.123l-0.523-0.712-2.030-0.004c-1.461-0.004-2.118 0.009-2.361 0.049z"></path>
<path d="M4.978 15.712c-1.197 0.177-2.185 0.663-3.11 1.512-0.783 0.725-1.461 1.932-1.721 3.063-0.176 0.787-0.197 1.799-0.050 2.573 0.318 1.684 1.465 3.717 3.705 6.577 1.465 1.874 1.536 1.949 1.917 1.945 0.327-0.004 0.481-0.137 1.147-0.972 2.424-3.050 3.433-4.601 4.094-6.29 0.209-0.53 0.251-0.672 0.41-1.401 0.029-0.15 0.050-0.544 0.046-1.017 0-0.853-0.071-1.304-0.314-2.029-0.574-1.715-1.93-3.121-3.571-3.7-0.452-0.159-0.557-0.186-1.084-0.261-0.54-0.080-0.95-0.080-1.469 0zM6.36 18.828c0.456 0.124 0.883 0.358 1.193 0.65 0.427 0.411 0.661 0.791 0.846 1.366 0.138 0.442 0.138 1.273-0.004 1.719-0.159 0.517-0.335 0.813-0.695 1.198-0.615 0.659-1.319 0.946-2.152 0.888-1.239-0.084-2.227-0.964-2.562-2.285-0.067-0.256-0.067-1.070 0-1.326 0.234-0.915 0.733-1.578 1.49-1.971 0.632-0.327 1.248-0.407 1.884-0.239z"></path>
</symbol>
<symbol id="icon-location" viewBox="0 0 22 32">
<path d="M9.809 0.035c-1.289 0.148-2.571 0.533-3.745 1.13-1.096 0.565-1.879 1.137-2.789 2.049-1.68 1.683-2.706 3.648-3.161 6.037-0.167 0.886-0.147 3.076 0.038 4.149 0.641 3.744 2.558 7.913 5.809 12.614 1.853 2.685 4.27 5.646 4.815 5.902 0.475 0.231 0.731 0.045 1.911-1.374 4.027-4.836 7.246-10.334 8.502-14.515 1.154-3.847 1.077-6.834-0.25-9.628-1.629-3.41-4.63-5.697-8.272-6.301-0.564-0.090-2.296-0.135-2.86-0.064zM12.265 4.113c1.411 0.27 2.642 0.925 3.674 1.959 1.122 1.13 1.828 2.524 2.058 4.111 0.103 0.739 0.038 2.126-0.128 2.781-0.34 1.304-0.943 2.376-1.866 3.327-1.206 1.24-2.61 1.927-4.309 2.113-1.302 0.148-2.616-0.096-3.834-0.706-4.296-2.164-5.303-7.964-1.988-11.458 1.090-1.156 2.514-1.92 4.040-2.177 0.417-0.071 1.885-0.039 2.353 0.051z"></path>
</symbol>
<symbol id="icon-cross" viewBox="0 0 32 32">
<path d="M14.678 0.028c-1.135 0.094-2.643 0.479-3.796 0.965-0.459 0.194-1.338 0.641-1.717 0.87-1.444 0.876-2.726 2.032-3.767 3.396-0.418 0.55-0.929 1.37-1.235 1.979-0.685 1.364-1.185 3.043-1.335 4.476-0.041 0.412-0.062 2.205-0.029 2.705 0.059 0.912 0.335 2.158 0.715 3.22 0.456 1.279 1.103 2.488 1.926 3.596 0.67 0.903 1.902 2.091 2.873 2.776 0.288 0.203 0.944 0.626 0.97 0.626 0.006 0 0.082 0.041 0.168 0.091 0.77 0.456 2.017 0.97 2.996 1.244 1.517 0.418 2.667 0.526 4.54 0.429 0.676-0.035 0.926-0.065 1.5-0.177 2.958-0.579 5.596-2.111 7.56-4.387 1.27-1.476 2.27-3.396 2.761-5.302 0.323-1.259 0.421-2.194 0.385-3.72-0.023-1.176-0.094-1.735-0.344-2.749-0.553-2.244-1.67-4.311-3.185-5.89-1.126-1.173-1.938-1.806-3.238-2.529-1.441-0.8-3.191-1.388-4.661-1.564-0.665-0.079-2.435-0.112-3.088-0.056zM17.090 2.23c1.479 0.132 3.079 0.65 4.428 1.429 1.6 0.923 2.97 2.27 3.914 3.849 0.741 1.238 1.276 2.697 1.461 3.985 0.37 2.573-0.068 4.993-1.297 7.19-0.691 1.232-1.761 2.455-2.908 3.329-1.253 0.953-2.785 1.655-4.337 1.991-0.965 0.206-1.441 0.253-2.408 0.235-1.458-0.029-2.111-0.129-3.299-0.509-1.782-0.565-3.19-1.435-4.531-2.796-1.57-1.597-2.52-3.426-3.005-5.778-0.1-0.491-0.123-0.941-0.115-2.147 0.012-1.17 0.021-1.288 0.132-1.853 0.341-1.703 1.023-3.249 2.008-4.558 0.35-0.465 0.594-0.744 1.073-1.22 1.329-1.326 2.805-2.202 4.625-2.749 0.635-0.188 1.45-0.359 1.964-0.406 0.256-0.026 1.991-0.018 2.294 0.009z"></path>
<path d="M11.447 6.674c-0.5 0.074-1.17 0.506-1.544 0.994-0.282 0.371-0.45 0.953-0.42 1.458 0.041 0.7 0.032 0.685 2.332 3.011l1.062 1.076-1.338 1.353c-1.847 1.864-1.955 1.991-2.073 2.394-0.068 0.229-0.079 0.767-0.024 0.973 0.059 0.206 0.182 0.503 0.265 0.632 0.282 0.447 0.626 0.762 1.073 0.985 0.459 0.226 0.917 0.291 1.385 0.191 0.462-0.097 0.547-0.171 2.47-2.076 0.726-0.723 1.332-1.317 1.341-1.323s0.644 0.609 1.411 1.367c1.503 1.485 1.867 1.823 2.149 1.997 0.265 0.159 0.365 0.182 0.847 0.179 0.409 0 0.435-0.006 0.668-0.097 0.691-0.271 1.247-0.847 1.485-1.532 0.071-0.209 0.1-0.697 0.059-1.035-0.065-0.512-0.174-0.65-2.070-2.567-0.767-0.776-1.4-1.423-1.403-1.435-0.003-0.015 0.547-0.582 1.22-1.264 1.4-1.414 2.052-2.105 2.129-2.255 0.050-0.103 0.1-0.306 0.129-0.553 0.023-0.177-0.032-0.559-0.115-0.823-0.115-0.359-0.306-0.659-0.629-0.976-0.321-0.318-0.591-0.479-0.988-0.594-0.344-0.097-0.906-0.091-1.22 0.012-0.121 0.038-0.273 0.106-0.338 0.147-0.209 0.132-0.65 0.547-1.991 1.873-0.723 0.715-1.32 1.303-1.326 1.306-0.009 0.003-0.556-0.529-1.217-1.185-1.838-1.814-1.95-1.92-2.188-2.055-0.271-0.153-0.77-0.229-1.141-0.176z"></path>
</symbol>
<symbol id="icon-price" viewBox="0 0 32 32">
<path d="M12.849 0.317c-7.648 1.567-12.869 7.978-12.849 15.833 0.020 11.519 12.176 19.232 22.618 14.368 5.547-2.585 9.055-7.713 9.361-13.635 0.163-3.623-0.632-6.614-2.611-9.606-3.569-5.474-10.157-8.263-16.52-6.96zM21.517 6.097c1.366 0.611 2.835 2.178 3.284 3.541 1.040 3.073-0.245 6.207-3.12 7.693-0.877 0.448-1.305 0.488-4.242 0.59l-3.263 0.102-0.061 0.855-0.061 0.875h2.957c1.836 0 3.161 0.081 3.488 0.244 0.897 0.407 0.938 1.954 0.082 2.401-0.224 0.142-1.795 0.285-3.467 0.346l-3.039 0.122v1.364c0 1.567-0.367 2.096-1.448 2.096-0.959 0-1.407-0.692-1.407-2.239v-1.262l-0.918-0.142c-1.040-0.142-1.53-0.651-1.53-1.526 0-0.733 0.857-1.404 1.754-1.404 0.693 0 0.693-0.020 0.693-0.916v-0.916h-0.816c-0.999 0-1.632-0.549-1.632-1.425s0.632-1.425 1.632-1.425h0.816v-4.233c0-3.154 0.061-4.335 0.265-4.599 0.428-0.59 1.489-0.712 5.343-0.651 3.263 0.041 3.773 0.102 4.691 0.509z"></path>
<path d="M14.175 10.228c-0.061 0.936-0.102 2.381-0.061 3.215l0.061 1.526 2.733 0.061c2.611 0.041 2.753 0.041 3.63-0.488 2.039-1.18 2.223-3.704 0.387-5.332l-0.755-0.651h-5.853l-0.143 1.669z"></path>
</symbol>
<symbol id="icon-coins" viewBox="0 0 30 32">
<path d="M13.802 0.176c-2.214 0.111-3.641 0.294-5.281 0.681-4.003 0.938-6.958 2.714-8.058 4.841-0.337 0.653-0.466 1.164-0.463 1.857 0 0.638 0.102 1.096 0.383 1.693 1.056 2.25 4.176 4.123 8.431 5.067 1.887 0.418 3.749 0.613 5.899 0.613 2.752 0 5.142-0.322 7.49-1.012 4.812-1.414 7.647-4.117 7.227-6.887-0.164-1.099-0.797-2.16-1.825-3.067-0.775-0.681-1.455-1.127-2.576-1.681-2.292-1.136-5.229-1.848-8.509-2.061-0.513-0.034-2.338-0.062-2.718-0.043zM18.052 2.757c2.134 0.108 3.376 0.396 4.312 1.009 0.33 0.214 0.726 0.607 0.883 0.879 0.454 0.786 0.315 1.656-0.374 2.34-0.701 0.696-2.137 1.201-3.944 1.387-0.914 0.096-1.902 0.121-4.685 0.124l-2.773 0.003v1.284h3.715c2.041 0 3.765 0.009 3.827 0.019 0.062 0.012 0.142 0.046 0.179 0.080 0.059 0.056 0.062 0.087 0.056 0.495l-0.009 0.436-0.173 0.13-3.759 0.009c-2.066 0.003-3.777 0.006-3.796 0.006-0.031 0-0.040 0.146-0.040 0.622 0 0.344-0.012 0.644-0.031 0.678-0.059 0.111-0.191 0.124-1.328 0.124-1.143 0-1.269-0.012-1.331-0.127-0.019-0.037-0.028-0.306-0.025-0.687l0.003-0.625-0.689-0.009c-0.54-0.009-0.707-0.019-0.76-0.056-0.068-0.043-0.071-0.062-0.071-0.508v-0.464l0.083-0.053c0.071-0.050 0.176-0.056 0.757-0.065l0.673-0.009v-1.325l-0.692-0.009c-0.886-0.012-0.822 0.034-0.822-0.588v-0.461l0.108-0.046c0.080-0.034 0.256-0.043 0.751-0.043h0.646l0.019-0.721c0.012-0.393 0.022-1.402 0.022-2.241v-1.523l0.086-0.046c0.071-0.040 0.624-0.046 4.318-0.050 2.452 0 4.5 0.012 4.864 0.031z"></path>
<path d="M0.185 11.771c-0.176 0.59-0.225 1.155-0.139 1.692 0.346 2.199 2.513 4.131 6.108 5.447 2.047 0.747 4.153 1.155 6.923 1.334 0.707 0.046 2.575 0.046 3.319 0 3.532-0.219 6.188-0.855 8.692-2.084 1.772-0.871 3.063-1.939 3.776-3.128 0.479-0.797 0.695-1.717 0.596-2.52-0.034-0.266-0.167-0.846-0.204-0.88-0.009-0.009-0.151 0.117-0.318 0.278-0.719 0.689-2.239 1.652-3.653 2.313-2.588 1.207-5.493 1.887-8.843 2.069-0.744 0.040-2.906 0.022-3.597-0.034-0.939-0.071-2.606-0.29-3.566-0.466-3.866-0.704-6.626-1.945-8.63-3.875-0.201-0.195-0.371-0.352-0.383-0.352-0.009 0-0.046 0.093-0.080 0.207z"></path>
<path d="M0.189 17.134c-0.729 2.356 0.784 4.687 4.131 6.361 2.322 1.164 4.993 1.84 8.26 2.087 3.041 0.232 6.651-0.080 9.189-0.791 1.88-0.528 3.696-1.334 4.925-2.189 1.606-1.118 2.544-2.402 2.745-3.761 0.062-0.405 0.062-0.692 0.003-1.084-0.040-0.262-0.154-0.719-0.188-0.757-0.006-0.006-0.145 0.117-0.312 0.275-0.979 0.939-3.035 2.131-4.903 2.847-2.1 0.806-4.236 1.275-6.839 1.497-0.911 0.077-3.566 0.077-4.493 0-1.519-0.13-3.434-0.423-4.783-0.735-3.131-0.723-5.515-1.902-7.272-3.597-0.201-0.195-0.374-0.352-0.383-0.352-0.012 0-0.046 0.090-0.080 0.198z"></path>
<path d="M0.179 22.614c-0.729 2.356 0.784 4.687 4.131 6.361 2.322 1.164 4.993 1.84 8.26 2.087 3.041 0.232 6.651-0.080 9.189-0.79 1.88-0.528 3.696-1.334 4.925-2.189 1.606-1.118 2.544-2.402 2.745-3.761 0.062-0.404 0.062-0.692 0.003-1.084-0.040-0.262-0.154-0.719-0.188-0.757-0.006-0.006-0.145 0.117-0.312 0.275-0.979 0.939-3.035 2.13-4.903 2.847-2.1 0.806-4.236 1.275-6.839 1.498-0.911 0.077-3.566 0.077-4.493 0-1.519-0.13-3.434-0.423-4.783-0.735-3.131-0.722-5.515-1.902-7.272-3.597-0.201-0.194-0.374-0.352-0.383-0.352-0.012 0-0.046 0.090-0.080 0.198z"></path>
<path d="M11.277 5.893v1.67l2.85-0.015c2.896-0.012 3.122-0.022 4.051-0.145 0.889-0.117 1.532-0.321 1.884-0.599 0.198-0.157 0.293-0.269 0.395-0.479 0.080-0.173 0.096-0.232 0.093-0.442 0-0.216-0.012-0.269-0.114-0.472-0.275-0.556-1.041-0.976-2.007-1.096-0.543-0.068-1.711-0.093-4.378-0.093h-2.773v1.67z"></path>
</symbol>
<symbol id="icon-book" viewBox="0 0 20 32">
<path d="M2.878 0.078c-0.936 0.173-1.99 0.964-2.44 1.83-0.465 0.88-0.437 0.042-0.437 12.888 0 12.937-0.035 12.001 0.465 12.576 0.132 0.159 0.402 0.374 0.603 0.478l0.354 0.187 4.888 0.042v-4.305h-5.13v-18.927h16.154v17.818h1.179v-8.964c0-4.922-0.035-9.394-0.062-9.928-0.069-1.068-0.201-1.525-0.596-2.149-0.284-0.458-0.86-0.964-1.373-1.227-0.804-0.402-0.777-0.402-7.293-0.395-3.432 0.007-6.108 0.035-6.309 0.076z"></path>
<path d="M2.351 10.11l-0.166 0.132-0.021 2.697c-0.028 2.988-0.007 3.148 0.347 3.272 0.305 0.111 13.117 0.104 13.429 0 0.132-0.049 0.25-0.153 0.291-0.25 0.035-0.090 0.062-1.387 0.062-2.905v-2.739l-0.173-0.166-0.166-0.173h-6.718c-6.517 0-6.732 0.007-6.884 0.132zM8.195 11.808c0.506 0.243 0.749 0.922 0.582 1.629-0.055 0.236-0.159 0.527-0.243 0.652-0.471 0.763-1.913 0.742-2.309-0.035-0.43-0.832-0.048-2.073 0.714-2.329 0.326-0.104 0.943-0.062 1.255 0.083zM11.488 11.746c0.672 0.284 0.908 0.894 0.707 1.851-0.159 0.756-0.908 1.193-1.726 1.019-0.659-0.139-0.964-0.582-0.971-1.38 0-0.492 0.201-1.033 0.471-1.269 0.347-0.312 1.061-0.409 1.518-0.222zM13.478 11.684c0.090 0.035 0.111 0.166 0.111 0.7 0 0.409 0.028 0.638 0.069 0.61 0.035-0.021 0.257-0.319 0.492-0.659 0.395-0.582 0.444-0.624 0.659-0.624 0.153 0 0.236 0.035 0.236 0.097 0 0.049-0.187 0.34-0.416 0.638s-0.416 0.575-0.416 0.617c0 0.042 0.194 0.367 0.423 0.728 0.548 0.846 0.541 0.832 0.257 0.832-0.222 0-0.257-0.035-0.714-0.777l-0.485-0.783-0.035 0.763-0.035 0.763h-0.485l-0.021-1.414c-0.021-1.546 0-1.629 0.361-1.491zM4.985 11.947c0.173 0.166 0.215 0.263 0.215 0.506 0 0.291-0.173 0.575-0.347 0.575-0.153 0-0.055 0.125 0.125 0.159 0.132 0.028 0.236 0.118 0.326 0.277 0.118 0.222 0.118 0.27 0.028 0.499-0.055 0.146-0.173 0.319-0.27 0.395-0.201 0.146-0.95 0.284-1.394 0.25l-0.305-0.021-0.021-1.442-0.014-1.449 0.721 0.028c0.693 0.021 0.735 0.028 0.936 0.222z"></path>
<path d="M7.017 12.162c-0.284 0.125-0.43 0.451-0.43 0.978 0 0.7 0.256 0.998 0.853 0.998 0.534 0 0.811-0.361 0.811-1.047 0-0.818-0.548-1.227-1.234-0.929z"></path>
<path d="M10.539 12.12c-0.305 0.083-0.485 0.451-0.485 0.991 0 0.513 0.118 0.832 0.34 0.957 0.076 0.035 0.298 0.069 0.492 0.069 0.277 0 0.388-0.035 0.52-0.166 0.326-0.333 0.395-1.116 0.125-1.574-0.173-0.291-0.555-0.402-0.991-0.277z"></path>
<path d="M3.814 12.467v0.423h0.284c0.402 0 0.548-0.097 0.548-0.374 0-0.291-0.125-0.395-0.52-0.444l-0.312-0.035v0.43z"></path>
<path d="M3.744 13.757v0.451h0.34c0.471 0 0.728-0.208 0.673-0.541-0.048-0.312-0.125-0.361-0.61-0.361h-0.402v0.451z"></path>
<path d="M11.891 17.299c-0.326 0.166-0.575 0.444-0.7 0.763-0.104 0.27-0.104 0.617-0.035 3.917 0.049 1.99 0.069 3.626 0.055 3.647-0.021 0.014-0.354-0.333-0.749-0.77-0.915-1.019-1.283-1.206-1.983-1.012-0.673 0.194-1.102 0.922-0.922 1.588 0.055 0.208 0.693 1.075 2.371 3.238 2.385 3.064 2.531 3.217 3.106 3.321 0.132 0.021 1.38 0.007 2.773-0.028 2.662-0.069 2.78-0.090 3.203-0.416 0.236-0.187 0.471-0.569 0.548-0.894 0.035-0.146 0.028-1.38-0.007-2.815-0.062-2.461-0.076-2.572-0.229-2.912-0.194-0.416-0.506-0.749-0.908-0.964-0.277-0.146-0.333-0.153-2.239-0.132-1.851 0.028-1.955 0.021-2.087-0.111-0.125-0.125-0.132-0.291-0.18-2.794-0.055-2.822-0.069-2.947-0.409-3.314-0.354-0.388-1.165-0.548-1.608-0.312z"></path>
</symbol>
<symbol id="icon-images" viewBox="0 0 32 32">
<path d="M7.551 0.029c-0.48 0.108-0.935 0.483-1.196 0.99-0.064 0.127-0.24 0.699-0.466 1.538-0.201 0.732-0.362 1.346-0.362 1.362 0 0.020 0.38 0.026 0.921 0.023l0.921-0.010 0.301-1.111c0.168-0.611 0.308-1.114 0.312-1.12 0.014-0.016 22.103 2.224 22.131 2.247 0.014 0.013-0.53 4.213-1.211 9.335l-1.236 9.315 0.007 3.015 0.011 3.011 0.107-0.010c0.487-0.049 0.913-0.568 1.060-1.287 0.079-0.398 3.149-22.85 3.149-23.033-0.004-0.732-0.845-1.754-1.648-1.996-0.158-0.046-22.336-2.306-22.576-2.299-0.064 0.003-0.165 0.013-0.226 0.029z"></path>
<path d="M12.602 4.782c-5.775 0.147-10.625 0.278-10.783 0.287-0.878 0.049-1.655 0.621-1.813 1.329-0.036 0.147 0.064 2.237 0.57 11.971 0.34 6.487 0.63 11.902 0.648 12.039 0.068 0.474 0.244 0.807 0.598 1.13 0.258 0.238 0.631 0.418 0.931 0.454 0.179 0.020 0.494 0.007 2.217-0.085 1.161-0.062 1.899-0.101 3.439-0.18 1.788-0.095 2.887-0.15 4.693-0.245 0.691-0.036 1.544-0.082 1.899-0.098 0.355-0.020 1.057-0.055 1.558-0.082 0.502-0.029 2.468-0.131 4.37-0.229 4.001-0.206 3.883-0.196 4.198-0.294 0.344-0.105 0.548-0.225 0.82-0.47 0.254-0.235 0.405-0.474 0.466-0.754 0.057-0.255-0.555-23.327-0.631-23.654-0.129-0.568-0.537-1.045-1.114-1.293-0.204-0.085-0.229-0.088-0.892-0.095-0.373 0-5.402 0.118-11.177 0.268zM23.99 6.405c0.032 0.372 0.613 18.277 0.595 18.294-0.021 0.016-21.505 1.133-21.519 1.12-0.014-0.010-1.229-18.777-1.229-18.947 0-0.101 0.011-0.114 0.118-0.127 0.061-0.007 0.856-0.033 1.763-0.052s2.479-0.056 3.493-0.082c1.014-0.026 2.998-0.078 4.406-0.114 5.166-0.131 6.738-0.17 9.475-0.242 1.537-0.042 2.812-0.078 2.837-0.082s0.047 0.082 0.061 0.232z"></path>
<path d="M19.398 8.325c-0.874 0.216-1.544 0.83-1.745 1.604-0.068 0.268-0.068 0.803 0 1.075 0.158 0.604 0.677 1.202 1.272 1.463 0.39 0.167 0.62 0.216 1.021 0.216 0.398 0 0.634-0.049 1.003-0.212 0.702-0.307 1.175-0.862 1.329-1.565 0.236-1.088-0.455-2.175-1.623-2.551-0.312-0.101-0.913-0.114-1.257-0.029z"></path>
<path d="M9.192 11.948c-0.222 0.069-0.394 0.183-0.559 0.369-0.068 0.078-1.075 1.385-2.239 2.904s-2.196 2.848-2.296 2.953c-0.097 0.108-0.219 0.268-0.265 0.359-0.19 0.346-0.193 0.268 0.143 3.332 0.168 1.545 0.315 2.819 0.33 2.828 0.014 0.013 18.983-1.091 19.054-1.111 0.004-0.003 0.004-1.182 0-2.626l-0.011-2.619-0.111-0.212c-0.129-0.248-1.669-2.371-1.784-2.459-0.48-0.369-1.107-0.418-1.551-0.124-0.082 0.052-0.853 0.869-1.716 1.816-0.86 0.944-1.58 1.712-1.594 1.708-0.014-0.007-1.429-1.545-3.145-3.423-2.174-2.378-3.178-3.449-3.306-3.537-0.193-0.127-0.466-0.219-0.652-0.219-0.061 0.003-0.193 0.029-0.297 0.062z"></path>
</symbol>
<symbol id="icon-info" viewBox="0 0 14 32">
<path d="M10.436 0.009c0.063-0.005 0.137-0.009 0.213-0.009 1.53 0 2.77 1.337 2.77 2.985 0 0.055-0.001 0.108-0.004 0.163v-0.008c-0.098 2.238-1.806 4.013-3.898 4.013-0.027 0-0.053 0-0.080-0.001h0.004c-0.085 0.011-0.185 0.016-0.286 0.016-1.469 0-2.661-1.284-2.661-2.868 0-0.117 0.006-0.232 0.019-0.345l-0.001 0.013c0.078-2.206 1.755-3.962 3.815-3.962 0.038 0 0.077 0 0.115 0.001h-0.006l0.001 0.003zM4.317 31.997c-1.568 0-2.72-1.044-1.622-5.634l1.801-8.143c0.314-1.304 0.365-1.825 0-1.825-1.411 0.391-2.65 1.003-3.754 1.812l0.041-0.028-0.783-1.409c3.817-3.496 8.211-5.545 10.091-5.545 1.568 0 1.831 2.034 1.045 5.165l-2.061 8.56c-0.366 1.513-0.208 2.034 0.156 2.034 1.368-0.341 2.559-1.015 3.541-1.941l-0.010 0.009 0.891 1.305c-3.716 4.069-7.769 5.642-9.338 5.642l0.001-0.003z"></path>
</symbol>
<symbol id="icon-user" viewBox="0 0 32 32">
<path d="M13.213 0.223c-4.386 1.089-7.553 4.886-7.571 9.030 0 1.486 0.273 2.608 1.019 4.077 0.491 0.974 0.928 1.502 2.129 2.575l1.492 1.337-1.001 0.396c-5.26 2.113-9.282 7.544-9.282 12.579 0 1.122 0.055 1.304 0.4 1.519 0.218 0.149 0.619 0.264 0.892 0.264 0.801 0 1.056-0.446 1.256-2.196 0.491-4.325 3.203-7.924 7.353-9.772 2.33-1.040 3.604-1.304 6.115-1.304 3.585 0 6.388 0.99 8.918 3.136 2.675 2.295 3.95 4.589 4.441 7.94 0.273 1.898 0.455 2.196 1.401 2.196 0.328 0 0.637-0.149 0.892-0.446 0.364-0.413 0.382-0.578 0.273-1.783-0.51-5.315-3.877-9.739-9.173-12.034l-1.238-0.528 1.019-0.743c1.31-0.941 2.603-2.707 3.185-4.308 0.564-1.535 0.637-3.714 0.182-5.315-0.892-3.12-3.822-5.778-7.353-6.62-1.238-0.297-4.15-0.297-5.351 0zM18.437 2.6c2.020 0.644 3.604 1.948 4.55 3.797 0.71 1.354 0.892 3.401 0.419 4.82-0.692 2.179-2.785 4.11-5.151 4.771-2.803 0.792-5.569 0.149-7.735-1.766-4.186-3.747-2.439-10.086 3.221-11.704 1.147-0.33 3.513-0.281 4.696 0.083z"></path>
</symbol>
<symbol id="icon-phone" viewBox="0 0 19 32">
<path d="M1.957 0.148c-0.851 0.307-1.474 0.913-1.773 1.711l-0.184 0.5 0.018 13.794 0.026 13.794 0.211 0.412c0.272 0.553 0.772 1.062 1.343 1.36l0.465 0.246 7.257 0.026c7.239 0.018 7.248 0.018 7.766-0.167 0.693-0.263 1.422-0.983 1.685-1.685l0.184-0.509v-27.273l-0.184-0.509c-0.237-0.605-0.825-1.272-1.439-1.588l-0.439-0.237-7.239-0.018c-6.915-0.018-7.257-0.018-7.696 0.14zM15.786 4.685c0.184 0.237 0.184 0.254 0.184 9.942 0 8.643-0.018 9.732-0.14 9.907l-0.132 0.193h-12.443l-0.175-0.228c-0.184-0.237-0.184-0.254-0.184-9.925v-9.688l0.219-0.211 0.211-0.219h12.285l0.176 0.228zM10.276 27.307c1.185 0.807 0.465 2.729-0.956 2.571-1.281-0.14-1.711-1.843-0.641-2.571 0.237-0.158 0.43-0.211 0.799-0.211s0.562 0.053 0.799 0.211z"></path>
</symbol>
<symbol id="icon-error" viewBox="0 0 32 32">
<path fill="#f02" style="fill: var(--color1, #f02)" d="M32 16c0 8.837-7.163 16-16 16s-16-7.163-16-16c0-8.837 7.163-16 16-16s16 7.163 16 16z"></path>
<path fill="#fff" style="fill: var(--color2, #fff)" d="M23.040 9.813l-12.1 13.506-1.112-0.996 12.1-13.506 1.112 0.996z"></path>
<path fill="#fff" style="fill: var(--color2, #fff)" d="M10.453 9.173l12.822 12.822-1.056 1.056-12.822-12.822 1.056-1.056z"></path>
</symbol>
<symbol id="icon-check" viewBox="0 0 32 32">
<path fill="#45ff22" style="fill: var(--color3, #45ff22)" d="M32 16c0 8.837-7.163 16-16 16s-16-7.163-16-16c0-8.837 7.163-16 16-16s16 7.163 16 16z"></path>
<path fill="#fff" style="fill: var(--color2, #fff)" d="M7.029 14.080l7.633 7.633-1.056 1.056-7.633-7.633 1.056-1.056z"></path>
<path fill="#fff" style="fill: var(--color2, #fff)" d="M25.71 10.656l-12.106 12.106-1.056-1.056 12.106-12.106 1.056 1.056z"></path>
</symbol>
</defs>
</svg>
