<svg width="100" height="100" fill="none" xmlns="http://www.w3.org/2000/svg"><path d="M33.102 17.892c-4.792.437-7.27 1.433-8.61 3.542-1.502 2.349-1.583 2.667-3.655 18.51-.406 3.065-.568 8.797-.609 18.988V73.58h4.468v2.15c0 2.547.65 4.498 1.624 5.016 1.015.557 3.777.517 5.036-.08 1.259-.518 1.868-2.349 1.868-5.414v-2.07h33.302v2.349c0 4.339 1.056 5.613 4.67 5.613 2.803 0 3.453-.876 3.453-4.578V73.58H79.522V58.932c-.04-10.35-.203-15.803-.609-18.789-.325-2.309-.772-5.612-.974-7.364-1.422-10.628-1.869-11.743-5.32-13.415-1.788-.836-3.21-1.154-6.905-1.512-5.483-.478-26.845-.438-32.612.04zm29.526 6.567c1.259.478 1.543 1.672.65 2.548-.772.756-1.3.796-13.606.796H36.88l-.69-1.035c-.65-1.035-.65-1.075.244-1.791.893-.716 1.827-.756 13.24-.756 6.782 0 12.63.12 12.955.238zm8.813 8.2c2.03 1.553 2.558 2.827 3.248 7.962.569 4.498.163 5.811-2.07 6.568-1.016.358-7.392.477-22.947.477-19.697.04-21.646-.04-22.946-.676-1.99-.956-2.274-2.11-1.665-6.528.772-5.772 1.218-6.767 3.655-8.36.975-.637 2.721-.716 21.038-.716h19.94l1.746 1.274zM29.569 60.644v1.792H24.696v-3.582H29.569v1.79zm6.904 0v1.792H31.6v-3.582H36.473v1.79zm31.678 0v1.792h-5.28v-3.582h5.28v1.79zm6.904 0v1.792h-5.28v-3.582h5.28v1.79z" fill="#1D2624"/><path fill-rule="evenodd" clip-rule="evenodd" d="M100 0H0v100h100V0zM89.655 10.345h-79.31v79.31h79.31v-79.31z" fill="#1D2624"/></svg>