<svg width="100" height="100" fill="none" xmlns="http://www.w3.org/2000/svg"><path d="M48.227 15.232a4.76 4.76 0 0 0-.927.365c-.295.167-6.42 5.73-18.461 16.786C9.477 50.162 10.542 49.136 10.29 50.162c-.381 1.51.468 3.067 2.053 3.75 1.057.454 2.617.359 3.483-.214.164-.11 7.736-7.025 16.823-15.363l16.53-15.164L65.83 38.44C81.7 52.975 82.515 53.714 83.052 53.937c.503.206.658.23 1.473.23.84 0 .953-.016 1.481-.246 1.55-.676 2.434-2.281 2.062-3.76-.242-.977-.095-.826-7.546-7.677l-7-6.438v-5.142c0-4.895-.008-5.158-.172-5.635-.2-.596-.373-.85-.927-1.367-.763-.715-1.976-1.08-3.076-.922-1.43.2-2.685 1.272-3.006 2.536-.052.199-.095 1.12-.095 2.042 0 .93-.026 1.693-.06 1.693-.036 0-3.405-3.052-7.477-6.787-5.025-4.602-7.528-6.843-7.77-6.954a4.17 4.17 0 0 0-2.712-.278z" fill="#1D2624"/><path d="M33.3 41.952 17.473 56.48l.017 12.073.026 12.08.208.461c.372.866 1.204 1.63 2.148 1.979l.503.183 17.43.024 17.439.016.017-13.408.026-13.416h14.554l.026 13.408.017 13.416h3.881c4.184 0 4.297-.008 5.215-.438.52-.246 1.257-.97 1.525-1.51.121-.238.26-.66.303-.938.044-.27.078-5.674.078-12.215V56.472L65.05 41.944c-8.706-7.988-15.844-14.52-15.87-14.52-.026 0-7.173 6.54-15.88 14.528zm9.798 21.212.017 6.7h-14.64v-6.66c0-3.664.026-6.692.06-6.716.035-.032 3.318-.048 7.295-.04l7.242.024.026 6.692z" fill="#1D2624"/><path fill-rule="evenodd" clip-rule="evenodd" d="M100 0H0v100h100V0zM89.655 10.345h-79.31v79.31h79.31v-79.31z" fill="#1D2624"/></svg>