<svg width="100" height="100" fill="none" xmlns="http://www.w3.org/2000/svg"><path d="M51.035 15.864c-.522.469-.38 2.015.142 2.015.285 0 .047.422-.474.938-.617.609-.949 1.546-.949 2.811 0 1.406-.19 1.875-.758 1.875-.427 0-.996.61-1.28 1.406-.285.75-.807 1.406-1.186 1.406-.332 0-1.47.422-2.467.937-1.043.516-3.224 1.265-4.837 1.64-5.975 1.313-11.903 3-12.424 3.515-.238.235-.949.469-1.566.469-1.185 0-2.18 1.406-1.754 2.53.332.797 1.138 1.032 1.138.329 0-.657 1.47-.844 3.035-.422 1.66.422 8.252-.235 14.132-1.406l4.079-.844.284 1.36c.427 2.155.332 5.576-.237 8.341-.284 1.406-.412 2.397-.46 3.287.46 0-.63 4.868-1.058 7.773-.616 4.78-.853 5.437-2.418 7.592-.996 1.313-2.276 3.609-2.893 5.156-.616 1.546-1.423 3.28-1.802 3.842-.427.563-.616 1.266-.522 1.594.143.28-.094.843-.521 1.171-.38.328-.712.844-.712 1.172 0 .422-1.043.75-3.082.937-2.988.328-3.51.61-4.126 2.344-.047.234-1.185 1.312-2.513 2.343l-2.324 3.714h36.546s.846.588-2.678-2.337c-3.651-2.11-4.798-2.924-4.181-4.892 1.802-5.858 2.371-8.295 2.798-11.67.284-2.155 1.233-6.092 2.134-8.763.9-2.624 1.612-5.67 1.612-6.702 0-1.03.19-1.968.38-2.109.237-.14 0-2.108-.475-4.358-.758-3.796-1.138-9.045-.664-9.045.143 0 .949.422 1.85.938 2.513 1.452 8.82 3.374 11.476 3.467 1.328.094 2.846.375 3.367.75 1.138.703 2.561.375 2.561-.656 0-.75-2.181-2.624-3.082-2.624-.332 0-.712-.281-.854-.656-.142-.375-2.04-1.219-4.22-1.922-4.269-1.359-7.02-2.765-10.291-5.249-1.139-.843-2.514-1.546-3.036-1.546-.758 0-.853-.188-.569-1.078 1.139-3.327.57-7.358-.995-7.358-.427 0-1.28-.515-1.897-1.171-1.139-1.219-1.708-1.406-2.23-.844zm.19 49.161c-.285 1.546-.522 3.843-.522 5.061 0 1.172-.332 2.906-.712 3.843-.379.89-.521 1.968-.379 2.39.237.61.142.703-.616.422-2.609-1.078-5.36-1.687-7.636-1.687-2.466 0-2.987-.281-2.039-1.219.285-.28.949-1.359 1.565-2.39.57-1.077 1.66-2.718 2.371-3.702 3.605-4.967 4.79-6.795 6.403-10.17l1.754-3.702.142 4.171c.095 2.25-.094 5.39-.331 6.983z" fill="#1D2624"/><path fill-rule="evenodd" clip-rule="evenodd" d="M100 0H0v100h100V0zM89.655 10.345h-79.31v79.31h79.31v-79.31z" fill="#1D2624"/></svg>