<svg width="127" height="50" viewBox="0 0 127 50" fill="none" xmlns="http://www.w3.org/2000/svg">
<path d="M5.87981 1.50339C4.87068 3.07988 3.93686 5.95466 3.45488 8.88243C2.8976 12.2739 2.80723 14.3008 2.73192 24.6076L2.65662 34.7819H9.78079H16.905L18.2605 34.199C19.8872 33.4969 21.3481 33.1922 23.0501 33.1922C24.7973 33.1922 26.1829 33.4836 27.7945 34.1858L29.1652 34.7819H54.8604H80.5556L80.5857 21.2294L80.6309 7.69012L84.0951 7.65038C88.0111 7.61064 89.939 7.75636 91.4452 8.22004C93.2827 8.77645 93.9906 9.25337 97.274 12.1944C101.521 15.9965 106.251 20.3815 106.462 20.726C106.718 21.1499 106.688 22.011 106.401 22.3952C106.251 22.5807 105.934 22.8589 105.663 22.9914C105.212 23.2431 104.88 23.2563 100.964 23.2563C98.6446 23.2563 96.3101 23.1901 95.7678 23.1106C95.2256 23.0444 93.5688 22.6204 92.0777 22.1965C90.5866 21.7593 88.9449 21.3221 88.4328 21.2029C87.5743 21.0174 84.803 20.6068 84.3662 20.6068C84.2155 20.6068 84.1704 22.117 84.1704 27.6943V34.7819H91.9422H99.714L100.633 34.3315C103.494 32.9405 107.17 32.8345 110.182 34.0533L111.311 34.517L112.998 33.6029C113.917 33.0994 114.821 32.6358 115.002 32.543C115.228 32.4503 116.839 32.3973 120.047 32.3973H124.777L124.716 31.4302C124.611 29.4298 123.888 27.5354 122.773 26.3298C121.96 25.4555 121.087 24.9388 115.845 22.223L110.995 19.7191L107.652 16.6192C94.5479 4.48415 92.5597 3.01364 87.7852 1.87433C84.2306 1.02647 87.0773 1.07946 44.6937 1.03972L6.21117 0.999973L5.87981 1.50339ZM29.0447 14.0491V20.4743H19.104H9.16326V14.0491V7.62389H19.104H29.0447V14.0491ZM50.131 14.0491V20.4743H42.2236H34.3162V14.1418C34.3162 10.6576 34.3614 7.75636 34.4217 7.71662C34.4669 7.66363 38.0365 7.62389 42.329 7.62389H50.131V14.0491ZM75.3593 14.0491V20.408L65.3885 20.4478L55.4026 20.4743V14.1418C55.4026 10.6576 55.4478 7.75636 55.508 7.71662C55.5532 7.66363 60.0566 7.63713 65.4788 7.65038L75.3593 7.69012V14.0491ZM7.94326 23.9849C8.87709 24.3956 8.93733 24.6606 8.98252 28.6482L9.0277 32.2648H7.52153H6.00031V27.946V23.614L6.73833 23.6935C7.16006 23.7332 7.70227 23.8657 7.94326 23.9849ZM118.134 26.449C120.348 27.6281 121.117 28.3832 121.252 29.4828L121.297 29.9465L118.255 29.9862L115.197 30.0127V29.4033C115.197 29.0721 115.303 28.4362 115.423 28.0123C115.679 27.1379 116.387 25.6409 116.538 25.6409C116.598 25.6409 117.321 25.9986 118.134 26.449Z" fill="white" stroke="#1D2624" stroke-width="0.1"/>
<path d="M115.348 35.9207C114.896 36.1724 114.429 36.4374 114.309 36.5036C114.128 36.5831 114.218 36.7818 114.746 37.4972C115.815 38.9412 116.282 40.2528 116.372 42.1207L116.448 43.684L119.701 43.631C123.27 43.5515 123.873 43.4587 124.867 42.7301C125.168 42.5049 125.605 41.9882 125.846 41.5643C126.253 40.8224 126.268 40.7562 126.313 38.1199L126.358 35.4438H121.267L116.176 35.4571L115.348 35.9207Z" fill="white" stroke="#1D2624" stroke-width="0.1"/>
<path d="M21.0619 36.2125C15.6698 37.4577 13.7118 43.459 17.5073 47.0624C20.7606 50.1492 26.3636 49.8709 29.1349 46.4795C30.2043 45.168 30.4754 44.3466 30.4603 42.4654C30.4603 41.2069 30.4001 40.8227 30.1139 40.2265C28.6078 37.0206 24.8273 35.3513 21.0619 36.2125ZM24.9176 39.8953C25.3695 40.1338 25.8213 40.5312 26.1075 40.9287C26.5142 41.5116 26.5594 41.697 26.5594 42.5979C26.5594 43.4987 26.5142 43.6842 26.1075 44.2671C24.6315 46.3603 21.1372 46.2146 19.8268 44.0022C19.3599 43.247 19.3599 41.9488 19.8268 41.1804C20.2033 40.5445 21.107 39.8424 21.83 39.5906C22.7036 39.2992 24.0893 39.4317 24.9176 39.8953Z" fill="white" stroke="#1D2624" stroke-width="0.1"/>
<path d="M103.946 36.1594C100.422 36.9145 97.8915 40.041 98.2379 43.2072C98.5542 46.0025 100.859 48.3739 103.916 49.023C107.516 49.8046 111.326 48.1089 112.742 45.1149C113.315 43.8696 113.405 41.8427 112.938 40.6107C112.501 39.4581 111.974 38.703 111.055 37.9081C109.248 36.3184 106.446 35.6295 103.946 36.1594ZM107.606 39.8953C108.645 40.4517 109.323 41.4718 109.323 42.4389C109.323 43.8961 108.706 44.8367 107.335 45.4329C105.543 46.2145 103.479 45.6051 102.5 43.9889C102.048 43.247 102.064 41.9354 102.515 41.1803C102.892 40.5444 103.796 39.8423 104.519 39.5906C105.392 39.2991 106.778 39.4316 107.606 39.8953Z" fill="white" stroke="#1D2624" stroke-width="0.1"/>
<path d="M1.06025 39.5109C1.12049 41.3259 1.25605 41.7498 2.06938 42.5049C3.04839 43.4455 4.34369 43.6575 9.20861 43.6575H12.3264V42.7301C12.3264 41.5246 12.6879 39.9878 13.2451 38.8353C13.4861 38.3451 13.6819 37.9079 13.6819 37.8814C13.6819 37.8549 10.8353 37.8417 7.34096 37.8284H1L1.06025 39.5109Z" fill="white" stroke="#1D2624" stroke-width="0.1"/>
<path d="M32.3582 37.9079C32.3582 37.9344 32.5239 38.2656 32.7348 38.6101C33.3673 39.7096 33.7138 41.0741 33.7138 42.4254V43.6575L64.3643 43.6442H95.0148V42.7169C95.0148 41.4583 95.3913 39.9348 95.9938 38.7955L96.5059 37.8284H64.4245C46.7873 37.8417 32.3582 37.8682 32.3582 37.9079Z" fill="white" stroke="#1D2624" stroke-width="0.1"/>
</svg>
