<svg width="243" height="75" viewBox="0 0 243 75" fill="none" xmlns="http://www.w3.org/2000/svg">
<path fill-rule="evenodd" clip-rule="evenodd" d="M197.218 2.16721C195.904 4.88441 192.9 11.3475 192.9 11.3475L194.591 10.8643C193.268 13.3589 189.212 21.2819 189.212 21.2819L191.676 20.6785C191.676 20.6785 186.494 31.2082 186.374 31.1947L195.752 28.473L195.918 35.506C197.206 35.506 198.455 35.506 198.455 35.506C198.455 33.5719 198.569 28.3734 198.569 28.3734L208.114 31.1947C206.655 28.442 202.811 20.6785 202.811 20.6785L205.276 21.2819C205.276 21.2819 201.227 13.3589 199.905 10.8643L201.354 11.3475L197.218 2.16721Z" fill="#1D2624"/>
<path fill-rule="evenodd" clip-rule="evenodd" d="M213.165 14.7297C211.851 17.447 208.846 23.9099 208.846 23.9099L210.537 23.4267C209.215 25.9213 205.158 33.8444 205.158 33.8444L207.623 33.2409C207.623 33.2409 202.44 43.7707 202.32 43.7571L211.699 41.0354L211.865 48.0685C213.153 48.0685 214.402 48.0685 214.402 48.0685C214.402 46.1343 214.516 40.9359 214.516 40.9359L224.06 43.7571C222.602 41.0045 218.758 33.2409 218.758 33.2409L221.222 33.8444C221.222 33.8444 217.174 25.9213 215.851 23.4267L217.301 23.9099L213.165 14.7297Z" fill="#1D2624"/>
<path fill-rule="evenodd" clip-rule="evenodd" d="M181.279 13.7633C179.966 16.4805 176.961 22.9436 176.961 22.9436L178.652 22.4604C177.33 24.955 173.273 32.878 173.273 32.878L175.738 32.2746C175.738 32.2746 170.555 42.8043 170.435 42.7908L179.814 40.0691L179.979 47.1021C181.267 47.1021 182.517 47.1021 182.517 47.1021C182.517 45.168 182.631 39.9695 182.631 39.9695L192.175 42.7908C190.717 40.0381 186.872 32.2746 186.872 32.2746L189.337 32.878C189.337 32.878 185.289 24.955 183.966 22.4604L185.415 22.9436L181.279 13.7633Z" fill="#1D2624"/>
<path fill-rule="evenodd" clip-rule="evenodd" d="M76.9534 29.7998L105.578 59.9366C105.578 59.9366 112.253 49.847 112.653 50.0983C113.287 50.4974 136.866 71.3694 136.866 71.3694H134.674L112.351 54.7159L107.147 69.2053C106.955 69.3985 97.4802 58.6692 95.3028 55.7949C94.2922 54.4599 94.2555 54.484 92.7284 57.4975L91.179 60.5546L84.6711 49.517C81.0922 43.4465 77.8597 38.0233 77.4887 37.4658C76.9292 36.627 60.2789 63.9667 60.2789 63.9667C57.7865 63.2371 59.974 64.4972 60.2789 63.9667L52.3597 47.3152C52.3597 47.3152 32.0083 67.4489 28.0694 71.7897H24.5139L51.6723 42.8908L60.2789 50.5447C68.9313 40.0889 76.606 29.8911 76.9534 29.7998Z" fill="#1D2624"/>
<path d="M20.0759 49.6088C20.5374 49.6204 20.5966 49.4986 21.2556 47.2591C21.6648 45.8681 21.8314 45.1965 21.8059 45.0728C21.7539 44.8017 21.6243 44.6631 21.3462 44.5809C21.0681 44.4993 20.8839 44.5457 20.6934 44.7452C20.6049 44.8356 20.379 45.4975 19.9614 46.9171C19.4536 48.6429 19.3692 48.9821 19.425 49.1614C19.5025 49.4247 19.7605 49.6011 20.0759 49.6088Z" fill="#1D2624"/>
<path d="M29.6281 49.8006C29.8999 49.7721 30.1429 49.5262 30.1685 49.2546C30.1954 48.9526 29.3175 45.2999 29.1481 45.0327C28.8558 44.5514 28.1422 44.6592 27.9806 45.2086C27.9197 45.4153 28.832 49.2411 29.0043 49.5242C29.1415 49.7426 29.3328 49.8301 29.6281 49.8006Z" fill="#1D2624"/>
<path d="M38.0795 45.2279C38.4288 45.0675 38.5848 44.695 38.4423 44.3896C38.3457 44.1905 37.4186 43.1812 35.8606 41.5761C35.4432 41.1509 35.1837 41.0591 34.8538 41.233C34.547 41.406 34.4296 41.7515 34.5774 42.066C34.7345 42.3757 37.3432 45.0965 37.6138 45.2303C37.7838 45.3115 37.894 45.3052 38.0795 45.2279Z" fill="#1D2624"/>
<path d="M43.0024 37.0826C43.4338 36.8531 43.5111 36.3801 43.1729 36.0559C43.0826 35.967 42.4134 35.7394 41.0013 35.3239L38.9549 34.7214L38.6872 34.8673C38.3529 35.0557 38.2505 35.3509 38.4036 35.6983L38.5162 35.9486L40.6206 36.5912L42.7323 37.2358L43.0024 37.0826Z" fill="#1D2624"/>
<path d="M11.7743 27.8917C12.1087 27.7033 12.211 27.4081 12.0576 27.0607L11.9452 26.8109L9.84061 26.1683L7.72889 25.5232L7.45912 25.6764C7.02741 25.9059 6.95016 26.3789 7.28863 26.7036C7.37883 26.792 8.04793 27.0201 9.45992 27.4356L11.5066 28.0376L11.7743 27.8917Z" fill="#1D2624"/>
<path d="M15.4429 21.5859C15.8604 21.4839 16.0597 21.0698 15.8769 20.6905C15.7271 20.3832 13.1254 17.6644 12.8548 17.5306C12.3644 17.3011 11.7921 17.8766 12.019 18.3694C12.1788 18.6955 14.8901 21.5163 15.104 21.5791C15.1967 21.6066 15.3519 21.6057 15.4429 21.5859Z" fill="#1D2624"/>
<path d="M22.0411 18.0176C22.2337 17.9427 22.4262 17.7359 22.4829 17.5432C22.5438 17.3364 21.6294 13.518 21.452 13.2256C21.1676 12.7699 20.3668 12.9372 20.2962 13.4666C20.2622 13.7666 21.1338 17.4407 21.3112 17.733C21.4605 17.963 21.8137 18.106 22.0411 18.0176Z" fill="#1D2624"/>
<path d="M29.549 18.2051L29.7991 18.0925L30.4416 15.9877C30.9763 14.2231 31.071 13.8481 31.0382 13.6446C30.9759 13.3551 30.7244 13.157 30.3855 13.1502C29.924 13.1384 29.8669 13.2534 29.1849 15.5713L28.5721 17.6538L28.718 17.9215C28.9063 18.2558 29.2016 18.3583 29.549 18.2051Z" fill="#1D2624"/>
<path d="M23.2679 41.3417C27.5182 42.197 31.8972 40.1923 34.0557 36.3868C35.3417 34.1227 35.7152 31.2725 35.049 28.7977C34.419 26.4345 32.9991 24.4124 30.9875 23.0069C29.2825 21.8231 26.9107 21.1404 24.8064 21.2341C21.0228 21.3993 17.7185 23.5963 16.037 27.0462C15.7214 27.6975 15.2429 29.3234 15.1556 30.0418C14.7006 33.8526 16.2883 37.4894 19.3794 39.6777C20.4435 40.4329 21.9436 41.0755 23.2679 41.3417ZM21.4224 39.3182C20.7336 38.9993 19.7353 38.3103 19.1556 37.7523C15.6692 34.4319 15.4955 28.8861 18.7674 25.3778C19.4358 24.6598 20.0059 24.223 20.9353 23.6983C22.162 23.0054 23.5426 22.6058 24.9237 22.5474C26.7204 22.4715 28.8028 23.0847 30.2722 24.1215C32.3426 25.5909 33.731 27.9294 33.9963 30.4255C34.2393 32.7597 33.532 35.1634 32.06 36.9541C30.2153 39.1936 27.5042 40.3488 24.5128 40.1657C23.6666 40.1184 22.3625 39.7574 21.4224 39.3182Z" fill="#1D2624"/>
<path d="M29.0558 26.6422C29.0026 26.6765 28.9554 26.7476 28.8775 26.9099C28.7847 27.1075 28.7746 27.1428 28.7922 27.2312C28.8329 27.4424 28.9509 27.5023 29.2177 27.4462C29.2807 27.4332 29.3895 27.4288 29.4595 27.4356C29.5303 27.4443 29.6211 27.4395 29.6592 27.4259L29.7293 27.4013L29.7964 27.5467C29.9495 27.885 30.3024 28.8474 30.3554 29.0745C30.4659 29.5543 30.5065 30.2322 30.465 30.9077C30.4335 31.3812 30.3026 32.0204 30.1311 32.5248C30.0254 32.8326 29.7417 33.4221 29.5655 33.6965C28.7152 35.0132 27.2832 35.9017 25.7134 36.0853C25.4664 36.1138 24.9278 36.1211 24.7028 36.0964C24.6071 36.0877 24.5215 36.0815 24.5115 36.0853C24.5035 36.0882 24.3936 36.0703 24.2681 36.0472C24.1446 36.023 24.0387 36.0037 24.0327 36.0061C24.0166 36.0114 23.5875 35.8945 23.3887 35.8293C22.9809 35.6959 22.3844 35.3852 22.0077 35.1098C21.7686 34.9373 21.7106 34.888 21.3251 34.53C21.2103 34.4218 21.1824 34.4068 21.0536 34.3865C20.906 34.3643 20.8541 34.3193 20.9383 34.2899C20.9824 34.2739 20.9867 34.2478 20.9818 34.042C20.9749 33.799 20.9135 33.3941 20.8723 33.3477C20.8174 33.2815 20.3645 33.4617 20.2184 33.61C20.1814 33.6458 20.1456 33.6787 20.1356 33.682C20.0975 33.6956 19.9376 33.9391 19.8787 34.0724C19.8075 34.2353 19.7825 34.3817 19.7853 34.6262C19.7882 34.8711 19.8211 34.945 20.0113 35.133C20.1482 35.2717 20.1863 35.2968 20.2734 35.3132C20.3921 35.3369 20.53 35.2997 20.5531 35.2374C20.5821 35.1596 20.6262 35.1823 20.8143 35.364C21.2383 35.7737 21.6571 36.0723 22.2407 36.3786C22.5258 36.5284 22.5177 36.5245 22.8495 36.6598C23.1204 36.7695 23.2401 36.8086 23.5487 36.8777C23.6669 36.9062 23.7858 36.9362 23.8121 36.9473C23.8393 36.9604 23.8683 36.9662 23.8763 36.9633C23.8863 36.9594 23.9862 36.9739 24.1015 36.9942C24.5812 37.0821 25.3186 37.1019 25.8421 37.0386C26.3663 36.9782 26.7306 36.8855 27.2946 36.6753C27.8225 36.4781 27.9693 36.4081 28.4264 36.1254C28.6446 35.9897 29.0346 35.708 29.1477 35.6002C29.1669 35.5843 29.2405 35.5181 29.3114 35.4567C29.3816 35.3939 29.463 35.3176 29.4894 35.2905C29.5171 35.2606 29.5463 35.2345 29.5563 35.2306C29.5904 35.2185 29.9649 34.7846 30.1267 34.572C30.2839 34.3652 30.3488 34.2681 30.4153 34.1497C30.4316 34.1193 30.4813 34.0362 30.5245 33.9671C30.6323 33.7869 30.9575 33.1042 31.0111 32.936C31.2101 32.318 31.2594 32.0731 31.3126 31.4319C31.3275 31.2372 31.3246 30.769 31.3068 30.5772C31.2966 30.4723 31.2251 30.0128 31.1758 29.7326C31.1551 29.6224 31.0797 29.3828 30.9628 29.0523C30.787 28.5595 30.7744 28.53 30.6124 28.2623C30.4283 27.9574 30.2441 27.6912 30.1696 27.6202C30.143 27.596 30.1249 27.5641 30.1267 27.5496C30.1304 27.5347 30.2499 27.4772 30.4202 27.41C30.7556 27.2805 30.8531 27.2124 30.8348 27.1288C30.829 27.0993 30.778 27.0181 30.7223 26.9495C30.4947 26.662 30.2061 26.4958 29.8806 26.4615C29.7728 26.4499 29.6322 26.448 29.5698 26.4562C29.4303 26.476 29.1535 26.5736 29.0558 26.6422Z" fill="#1D2624"/>
<path d="M17.3217 57.1221L0 47.1437C0.197688 46.5015 0.489921 45.7251 0.876747 44.8129C1.2585 43.8721 1.72726 42.8792 2.28298 41.8341C2.8387 40.7885 3.4594 39.7763 4.14513 38.7969C4.80723 37.8513 5.54445 36.9956 6.3568 36.2308C7.18099 35.449 8.06083 34.8571 8.99642 34.4556C10.121 34.79 11.097 35.247 11.9243 35.8264C13.292 36.784 14.213 38.0204 14.6873 39.5357C15.1565 41.0219 15.2822 42.6574 15.064 44.4428C14.8291 46.216 14.3391 48.0119 13.5942 49.8306L18.8419 54.4115L17.3217 57.1221ZM11.996 48.4473C12.1753 46.8615 11.9965 45.4275 11.4596 44.1456C10.906 42.8517 10.1648 41.88 9.23609 41.2297C8.64515 40.8156 8.00179 40.5663 7.30607 40.4817C6.60531 40.3687 5.90534 40.4696 5.20618 40.7856C5.08797 40.9543 4.97477 41.1519 4.8667 41.3785C4.77042 41.5877 4.68254 41.8032 4.60316 42.0245L11.996 48.4473Z" fill="#1D2624"/>
<path d="M39.253 31.861L38.3916 30.18L38.7708 16.9L33.2648 19.3589L32.0884 17.5026L43.1048 11.4767L45.058 14.0626L41.1917 28.1029L48.9258 22.3261L50.6611 24.9666L39.253 31.861Z" fill="#1D2624"/>
<path d="M54.1091 8.02319C53.3385 8.16336 52.6192 8.0113 51.952 7.56702C51.3013 7.09873 50.9056 6.47921 50.7655 5.70846C50.6249 4.93775 50.779 4.22875 51.2269 3.58149C51.6916 2.91027 52.309 2.5046 53.0796 2.36438C53.8501 2.22417 54.5613 2.3882 55.212 2.85649C55.8792 3.30082 56.2831 3.90831 56.4232 4.67906C56.5638 5.44977 56.4014 6.17076 55.9367 6.84198C55.4889 7.48923 54.8797 7.88297 54.1091 8.02319ZM55.914 25.8928L51.623 11.1156L57.9503 8.92725L58.8755 25.0714L55.914 25.8928Z" fill="#1D2624"/>
<path d="M69.9855 22.7619L68.0115 10.3547L65.1916 10.9034L64.8414 7.73223L67.5521 7.46784L66.8651 3.16844L74.5007 1.75086L74.1427 6.78565L77.1916 6.4728L77.2061 8.54666L73.9572 9.17957L73.0281 22.3256L69.9855 22.7619Z" fill="#1D2624"/>
<path d="M89.3017 5.65663C88.5451 5.45389 87.9601 5.00898 87.5465 4.32191C87.1586 3.6203 87.0658 2.89115 87.2683 2.13445C87.4712 1.37776 87.9132 0.80264 88.5949 0.409049C89.3017 0.000866367 90.0336 -0.101805 90.7901 0.100933C91.5467 0.303672 92.1192 0.755869 92.5076 1.45748C92.9207 2.14455 93.026 2.86641 92.8236 3.6231C92.6206 4.3798 92.166 4.96221 91.4592 5.37039C90.7776 5.76394 90.0582 5.85936 89.3017 5.65663ZM83.2947 22.5826L85.7325 7.38932L92.3878 8.11635L86.3233 23.1064L83.2947 22.5826Z" fill="#1D2624"/>
<path d="M95.2941 25.0333L99.8556 14.0005L97.3527 13.1034L98.7049 10.2137L101.211 11.4291C102.271 9.72913 103.4 8.48796 104.596 7.70561C105.811 6.93307 107.006 6.50112 108.18 6.40985C109.372 6.32838 110.442 6.47357 111.389 6.84542L109.88 12.0407C108.825 11.8683 107.869 11.8791 107.015 12.0729C106.178 12.2765 105.42 12.6164 104.741 13.0926L109.36 15.2755L108.293 17.0537L105.38 16.005L98.1189 26.2451L95.2941 25.0333Z" fill="#1D2624"/>
<path d="M121.019 40.8866L127.804 31.0642L125.547 29.6596L127.477 27.1201L129.671 28.8363C131.066 27.3984 132.431 26.4234 133.765 25.9107C135.115 25.4116 136.374 25.2415 137.541 25.4C138.724 25.5715 139.739 25.9392 140.587 26.5026L138.016 31.2628C137.021 30.8714 136.085 30.6806 135.209 30.6898C134.348 30.7125 133.535 30.885 132.771 31.2072L136.826 34.315L135.408 35.8283L132.782 34.1889L123.524 42.6671L121.019 40.8866Z" fill="#1D2624"/>
<path d="M107.965 30.9618L114.883 21.2327L112.646 19.7972L114.611 17.2842L116.781 19.0309C118.195 17.6118 119.573 16.6552 120.914 16.1611C122.271 15.6805 123.532 15.5274 124.697 15.7018C125.877 15.8897 126.888 16.2711 127.727 16.8459L125.092 21.5704C124.102 21.166 123.169 20.9621 122.293 20.9597C121.432 20.9703 120.617 21.1317 119.848 21.4433L123.86 24.6066L122.422 26.1001L119.818 24.425L110.446 32.7761L107.965 30.9618Z" fill="#1D2624"/>
<path d="M144.908 58.074L151.175 47.1862L148.638 45.8391L150.359 43.1532L152.633 44.6529L154.803 40.8779L161.631 44.579L158.186 48.268L160.753 49.9422L159.46 51.5637L156.536 50.0122L147.547 59.6486L144.908 58.074Z" fill="#1D2624"/>
<path d="M159.229 66.9605L164.484 52.4648L170.885 54.4265L168.176 58.6117L168.37 58.706C169.82 57.5067 171.238 56.7037 172.625 56.2983C174.039 55.8828 175.335 55.9026 176.512 56.3568L172.866 61.9099C172.587 61.7292 172.312 61.5625 172.043 61.4093C171.801 61.2465 171.551 61.1025 171.291 60.9769C170.493 60.5908 169.721 60.4352 168.975 60.5096C168.248 60.5932 167.479 61.0001 166.668 61.7301C165.885 62.4505 165.001 63.5686 164.016 65.0848L162.106 68.0423L159.229 66.9605Z" fill="#1D2624"/>
<path d="M181.725 74.2872C181.602 74.2819 181.468 74.2761 181.323 74.2703C181.2 74.265 181.077 74.2491 180.954 74.2235C180.274 73.7195 179.738 72.9952 179.345 72.0497C178.974 71.0848 178.81 70.0977 178.853 69.0883C178.889 68.2437 179.115 67.5518 179.53 67.0126C179.945 66.4734 180.663 66.0912 181.684 65.867C182.726 65.6225 184.174 65.5404 186.027 65.6196C186.48 65.639 186.963 65.6805 187.476 65.7438C187.99 65.7863 188.534 65.8612 189.107 65.9685L189.074 65.2862C189.028 64.4383 188.655 63.7618 187.954 63.2574C187.274 62.7535 186.45 62.481 185.482 62.4394C184.947 62.4162 184.377 62.4747 183.773 62.6138C183.189 62.7539 182.602 62.9864 182.01 63.312L180.843 58.7741C181.534 58.5146 182.41 58.3044 183.469 58.1435C184.55 57.9628 185.656 57.8971 186.789 57.9454C188.293 58.0102 189.591 58.2822 190.685 58.7625C191.799 59.2437 192.645 59.9607 193.223 60.914C193.822 61.8475 194.09 63.0666 194.025 64.5697C194.018 64.7552 193.998 64.9712 193.967 65.2172C193.956 65.4645 193.938 65.639 193.913 65.7414L192.683 74.2312L189.613 74.3781L189.342 69.8783L189.094 69.8677C188.353 71.2805 187.346 72.3927 186.073 73.2049C184.822 73.9973 183.373 74.3578 181.725 74.2872ZM184.19 70.9263C184.647 70.8635 185.188 70.7422 185.815 70.563C186.463 70.3639 187.086 70.0189 187.685 69.529C188.305 69.0187 188.802 68.2664 189.175 67.2711C188.907 67.26 188.639 67.2484 188.371 67.2368C188.105 67.2049 187.827 67.1827 187.539 67.1701C186.9 67.1431 186.323 67.1286 185.808 67.1271C185.292 67.1257 184.754 67.1643 184.194 67.2436C184.103 67.4252 184.001 67.648 183.886 67.9113C183.772 68.1746 183.706 68.5124 183.688 68.924C183.673 69.2743 183.719 69.658 183.824 70.075C183.931 70.4716 184.053 70.7557 184.19 70.9263Z" fill="#1D2624"/>
<path d="M206.468 74.5486L197.272 60.5188L203.644 58.4658L207.53 69.8382L207.775 69.7991L209.856 57.5657L212.437 57.8415L208.877 73.7562L206.468 74.5486Z" fill="#1D2624"/>
<path d="M227.497 69.2657C226.027 69.9179 224.668 70.3629 223.421 70.6007C222.173 70.8384 221.043 70.8321 220.03 70.5823C219.526 69.9039 219.103 69.2797 218.76 68.7105C218.428 68.1133 218.14 67.5417 217.898 66.9952C217.154 65.3181 216.727 63.6696 216.617 62.0495C216.527 60.4207 216.664 58.9272 217.032 57.569C217.39 56.192 217.895 55.0662 218.544 54.1922C219.45 54.1506 220.395 54.1714 221.379 54.2535C222.373 54.3086 223.335 54.4685 224.264 54.7328C225.193 54.9971 226.023 55.3958 226.755 55.9277C227.479 56.4409 228.029 57.1216 228.405 57.9696C228.798 58.8553 228.968 59.6708 228.915 60.4159C228.873 61.1339 228.513 61.8234 227.837 62.4844C227.161 63.1453 226.059 63.814 224.533 64.4914C223.893 64.7755 223.258 65.0234 222.63 65.2341C222.021 65.437 221.479 65.5873 221.004 65.6854C221.038 66.7295 221.269 67.7326 221.695 68.6936C222.154 68.5578 222.646 68.396 223.171 68.208C223.688 68.0012 224.182 67.793 224.653 67.5842C225.539 67.1914 226.414 66.7242 227.279 66.1825C228.154 65.6139 228.987 64.9509 229.779 64.1938L231.843 66.5594C231.198 67.1387 230.501 67.6509 229.751 68.0964C229.002 68.5419 228.25 68.9313 227.497 69.2657ZM222.179 63.6072C222.895 63.2898 223.594 62.9347 224.277 62.5414C224.979 62.1398 225.577 61.7615 226.073 61.4059C225.963 61.0039 225.832 60.6333 225.682 60.2941C225.381 59.6158 225.019 59.0548 224.597 58.6108C224.185 58.1392 223.755 57.7551 223.307 57.4574C222.562 58.6229 222.011 59.7467 221.657 60.8285C221.321 61.9021 221.095 62.9946 220.979 64.1059C221.176 64.0411 221.378 63.9629 221.586 63.8706C221.793 63.7788 221.991 63.6908 222.179 63.6072Z" fill="#1D2624"/>
<path d="M240.263 61.2561L227.836 43.5387L232.992 39.2675L242.747 59.4462L240.263 61.2561Z" fill="#1D2624"/>
</svg>
