<svg width="252" height="185" viewBox="0 0 252 185" fill="none" xmlns="http://www.w3.org/2000/svg">
<path d="M63.8641 8.94872C61.0495 10.8186 56.1269 14.0579 52.9605 16.1615C46.8452 20.1561 34.4658 28.3308 23.1776 35.7744C19.4477 38.2585 16.3083 40.4307 16.2222 40.6549C16.1361 40.879 15.2958 45.5065 14.3469 50.9852C13.3652 56.461 11.1103 69.2079 9.31816 79.347C7.49318 89.4831 6.0021 98.0925 5.97009 98.4539C5.93226 98.881 7.26311 101.052 9.33007 103.884C11.2174 106.501 14.6713 111.244 16.9691 114.461C45.6109 154.083 43.1517 150.819 44.7441 151.159C45.5239 151.327 52.2365 152.551 59.6719 153.839C72.5831 156.108 88.7507 158.997 121.121 164.745C129.208 166.157 147.691 169.45 162.197 172.026C176.737 174.605 196.689 178.128 206.532 179.893C216.409 181.662 224.531 183.044 224.603 182.984C224.71 182.894 225.45 179.02 226.267 174.291C229.241 157.535 231.605 144.301 233.772 132.175C234.942 125.69 238.615 104.79 243.042 79.852C243.765 75.8101 245.684 64.987 247.328 55.7621C248.973 46.5372 250.332 38.6776 250.367 38.2833C250.428 37.5934 250.234 37.5431 244.008 36.4287C240.453 35.8158 235.076 34.8428 232.011 34.3064C213.624 31.0552 201.594 28.93 176.429 24.4493C160.909 21.717 146.63 19.1939 144.643 18.8193C142.69 18.4475 132.616 16.6612 122.316 14.8217C91.0176 9.30104 77.6522 6.92512 74.0674 6.27646C72.1793 5.91055 70.2854 5.61034 69.8255 5.5696C69.2641 5.55298 67.2779 6.6684 63.8641 8.94872ZM81.154 10.3809C90.0861 11.9668 142.995 21.3553 150.43 22.6431C152.483 23.0235 158.35 24.073 163.467 24.9899C168.587 25.8739 182.018 28.2556 193.296 30.281C226.873 36.2354 227.787 36.3826 237.598 38.1456C242.781 39.0683 247.08 39.8795 247.17 39.9868C247.23 40.0583 246.827 42.7378 246.246 45.9313C245.665 49.1248 242.508 66.8248 239.248 85.3104C230.985 131.862 228.388 146.599 225.361 163.582C223.919 171.633 222.705 178.611 222.667 179.038C222.6 179.794 222.6 179.794 219.431 179.314C217.669 179.026 212.124 178.071 207.105 177.163C202.084 176.288 194.523 174.922 190.317 174.186C186.11 173.449 179.362 172.255 175.32 171.533C171.278 170.811 165.408 169.794 162.28 169.219C159.153 168.644 153.283 167.627 149.241 166.905C142.591 165.72 132.222 163.907 85.9987 155.674C77.8493 154.224 65.8821 152.137 59.4265 151.002C52.9709 149.868 47.0709 148.815 46.3568 148.653C44.8301 148.319 47.439 151.762 20.3281 114.295L8.85167 98.4442L9.31653 95.4391C9.59346 93.8081 10.4097 89.0792 11.1378 84.9716C11.8687 80.8311 13.8081 69.778 15.4705 60.356C17.1329 50.934 18.6015 42.9517 18.6992 42.5961C18.7969 42.2405 19.8042 41.3364 20.9282 40.6082C22.0523 39.8799 26.1311 37.195 30.0011 34.6239C33.8683 32.0858 40.0551 28.0312 43.7134 25.607C70.3716 8.00202 69.5307 8.52354 70.812 8.63704C71.502 8.69816 76.1681 9.47571 81.154 10.3809Z" fill="#151515"/>
<path d="M24.2832 65.9048C22.4509 66.4048 21.3597 67.1359 20.0314 68.6738C19.0695 69.8138 18.8916 70.3278 18.6009 72.4874C18.3103 74.647 18.3594 75.2143 18.9358 76.5567C21.3979 82.4038 29.5515 83.0598 32.8118 77.6534C34.909 74.1638 34.0833 69.6537 30.8528 67.2483C29.082 65.9326 26.2856 65.3538 24.2832 65.9048ZM29.5745 69.7178C30.4719 70.4264 31.4239 72.7624 31.3133 74.0108C31.1911 75.3907 29.7834 77.4514 28.5695 78.0723C26.9439 78.8554 24.3842 78.5956 23.0588 77.4848C21.0513 75.8501 20.573 73.0263 21.9208 70.8941C23.5422 68.2895 27.1004 67.7437 29.5745 69.7178Z" fill="#151515"/>
<path d="M69.4308 9.27641C68.0418 10.3785 65.3046 12.1228 65.0089 12.0966C64.8118 12.0791 64.4986 12.25 64.3497 12.4355C64.1979 12.6538 63.2739 13.3667 62.29 14.008C61.3389 14.6522 60.2447 15.4162 59.9229 15.6857C59.5652 15.9851 59.2878 16.1261 59.3024 15.9618C59.314 15.8304 59.1768 15.8845 59.025 16.1028C58.763 16.4439 56.8609 17.7323 51.5652 21.071C50.1251 22.0031 48.7864 22.9109 48.5718 23.0906C48.3901 23.2732 47.123 24.1212 45.7544 24.9933C44.4215 25.8355 43.1515 26.7163 42.9369 26.896C42.7552 27.0786 42.0216 27.5102 41.3595 27.882C39.7222 28.7966 34.8982 32.0447 34.7406 32.3287C34.6604 32.4872 34.4216 32.5654 34.1917 32.545C33.9617 32.5246 33.3325 32.8994 32.7574 33.4113C32.1851 33.8904 31.1238 34.6573 30.3932 35.0561C29.6924 35.4908 29.1531 35.9728 29.267 36.1815C29.3481 36.3874 29.2795 36.4144 29.094 36.2655C28.8129 36.0751 26.9282 37.1664 25.8852 38.1005C25.7779 38.1903 24.3706 39.1252 22.7246 40.1383C21.0757 41.1843 19.6327 42.1491 19.4867 42.3018C19.1919 42.6399 18.4816 45.4246 18.5395 45.8933C18.5906 46.0634 18.243 48.1186 17.8035 50.4637C17.3997 52.7789 16.9515 55.2226 16.8633 55.8439C16.4895 58.1948 14.5028 69.4093 14.2396 70.5118C13.9764 71.6142 12.3701 80.7764 11.5102 85.9981C11.2836 87.4349 10.694 90.727 10.2312 93.3349L9.3493 98.058L10.5837 99.8229C11.2607 100.777 12.3212 102.262 12.9771 103.081C13.6001 103.898 14.3341 104.956 14.562 105.374C14.8199 105.827 15.3231 106.501 15.7182 106.9C16.1133 107.299 16.404 107.756 16.3953 107.854C16.3836 107.986 16.7342 108.513 17.2133 109.085C17.9291 109.977 19.7623 112.457 21.4042 114.854C21.7577 115.349 22.5874 116.449 23.2732 117.304C23.9262 118.157 24.8727 119.433 25.3402 120.136C25.8076 120.84 26.7213 122.113 27.4042 123.001C28.0871 123.889 29.4142 125.729 30.3192 127.1C31.257 128.475 32.4643 130.171 32.9676 130.845C33.5007 131.554 34.3575 132.723 34.8549 133.462C36.1433 135.364 37.8239 137.699 39.4263 139.794C40.1691 140.754 41.7927 142.984 43.03 144.716C45.0341 147.509 45.4321 147.876 46.5105 148.037C47.1946 148.164 49.3784 148.556 51.3292 148.961C54.5855 149.58 62.6693 151.025 67.6282 151.861C68.7036 152.056 73.0412 152.805 77.2444 153.574C81.4506 154.311 86.535 155.225 88.4917 155.564C90.4813 155.906 95.3715 156.769 99.4105 157.524C106.386 158.771 112.385 159.833 147.985 166.132C156.331 167.599 166.24 169.371 169.986 170.067C173.763 170.799 177.055 171.389 177.317 171.412C177.876 171.461 185.087 172.663 187.758 173.165C189.649 173.498 193.822 174.231 200.472 175.417C204.905 176.207 209.079 176.94 214.65 177.964C216.637 178.338 219.083 178.754 220.096 178.91L221.957 179.207L222.273 177.877C222.439 177.131 223.028 173.839 223.621 170.514C224.181 167.186 224.776 163.828 224.947 163.015C225.257 161.387 226.663 153.366 228.21 144.497C228.755 141.333 229.336 138.14 229.499 137.426C229.661 136.712 230.26 133.321 230.825 129.928C231.394 126.501 232.461 120.437 233.183 116.395C235.783 101.99 238.427 87.0922 239.742 79.7254C240.44 75.582 241.54 69.5207 242.133 66.1958C242.725 62.8708 243.217 59.9344 243.24 59.6715C243.264 59.4087 243.535 57.8434 243.842 56.2481C244.151 54.6199 244.689 51.9192 245.004 50.2254C245.32 48.5315 245.797 45.7593 246.008 44.1224C246.255 42.4556 246.521 40.956 246.67 40.7705C246.783 40.6149 246.83 40.4536 246.732 40.4448C246.666 40.439 245.495 40.2028 244.198 39.8893C242.898 39.6086 240.816 39.1924 239.541 39.0132C238.301 38.804 234.779 38.1941 231.714 37.6577C228.685 37.0913 224.479 36.3545 222.426 35.9741C220.371 35.6264 217.796 35.1666 216.72 34.972C215.645 34.7774 213.07 34.3175 211.015 33.9699C208.962 33.5894 206.453 33.1354 205.473 32.9823C204.493 32.8293 202.082 32.384 200.096 32.0093C198.139 31.6705 192.272 30.621 187.056 29.6954C181.873 28.7727 175.907 27.7145 173.852 27.3669C171.8 26.9864 168.311 26.3793 166.091 26.0172C163.872 25.655 161.592 25.2213 161.042 25.0733C160.46 24.9223 158.897 24.6184 157.553 24.4662C155.134 24.1194 146.461 22.5897 140.8 21.4591C139.175 21.1164 136.597 20.6894 135.061 20.4541C133.523 20.2516 130.748 19.8071 128.86 19.4412C121.206 18.0016 118.404 17.4885 114.521 16.8465C105.027 15.244 87.2643 12.0481 86.8488 11.8789C86.5947 11.757 84.9337 11.4443 83.0997 11.2157C81.2686 10.9541 77.6152 10.3325 74.9444 9.83104C72.2737 9.32957 70.06 8.90169 69.9943 8.89587C69.9614 8.89296 69.6811 9.0668 69.4308 9.27641ZM30.5013 66.3563C34.1282 68.3994 35.5115 72.5947 33.8847 76.7551C31.5993 82.7446 23.3002 83.7312 19.4598 78.4905C18.07 76.6125 17.6299 74.8517 17.911 72.4263C18.1833 70.0995 20.5607 66.436 21.6778 66.535C21.9078 66.5554 22.1552 66.3786 22.277 66.1245C22.4791 65.7119 24.2042 65.3019 26.1359 65.175C27.3689 65.0855 29.0811 65.5683 30.5013 66.3563Z" fill="#F7FF19"/>
</svg>
